<mxfile host="Electron" agent="Mozilla/5.0 (Windows NT 10.0; Win64; x64) AppleWebKit/537.36 (KHTML, like Gecko) draw.io/24.7.5 Chrome/126.0.6478.183 Electron/31.3.0 Safari/537.36" version="24.7.5">
  <diagram name="Page-1" id="fmsdIRSnUimlX5E_0wNl">
    <mxGraphModel dx="1050" dy="621" grid="1" gridSize="10" guides="1" tooltips="1" connect="1" arrows="1" fold="1" page="1" pageScale="1" pageWidth="850" pageHeight="1100" math="0" shadow="0">
      <root>
        <mxCell id="0" />
        <mxCell id="1" parent="0" />
        <mxCell id="ro7QubdlUAFsRSPaYgTF-3" style="edgeStyle=orthogonalEdgeStyle;rounded=0;orthogonalLoop=1;jettySize=auto;html=1;exitX=0.5;exitY=1;exitDx=0;exitDy=0;entryX=0.5;entryY=0;entryDx=0;entryDy=0;fontFamily=Helvetica;fontSize=12;spacing=20;" parent="1" source="ro7QubdlUAFsRSPaYgTF-1" target="ro7QubdlUAFsRSPaYgTF-2" edge="1">
          <mxGeometry relative="1" as="geometry" />
        </mxCell>
        <mxCell id="ro7QubdlUAFsRSPaYgTF-1" value="Inicio" style="ellipse;whiteSpace=wrap;html=1;fontFamily=Helvetica;fontSize=12;fillColor=#fad9d5;strokeColor=#ae4132;fontStyle=1;strokeWidth=3;spacing=20;" parent="1" vertex="1">
          <mxGeometry x="365" y="70" width="120" height="80" as="geometry" />
        </mxCell>
        <mxCell id="ro7QubdlUAFsRSPaYgTF-14" style="edgeStyle=orthogonalEdgeStyle;rounded=0;orthogonalLoop=1;jettySize=auto;html=1;exitX=0.5;exitY=1;exitDx=0;exitDy=0;entryX=0.5;entryY=0;entryDx=0;entryDy=0;fontFamily=Helvetica;fontSize=12;spacing=20;" parent="1" source="ro7QubdlUAFsRSPaYgTF-2" target="ro7QubdlUAFsRSPaYgTF-7" edge="1">
          <mxGeometry relative="1" as="geometry" />
        </mxCell>
        <mxCell id="ro7QubdlUAFsRSPaYgTF-2" value="El sistema le muestra un listado de las solicitudes, en el orden en el que fueron generadas" style="rounded=1;whiteSpace=wrap;html=1;fontFamily=Helvetica;fontSize=12;spacing=20;" parent="1" vertex="1">
          <mxGeometry x="345" y="170" width="160" height="90" as="geometry" />
        </mxCell>
        <mxCell id="ro7QubdlUAFsRSPaYgTF-4" value="NOMBRE:&amp;nbsp;CU - Bandeja Analista&amp;nbsp; v1.0&lt;br&gt;AUTOR: RENE ALEXANDER MACHIC MORALES&lt;br&gt;FECHA: 2024-08-05&lt;br&gt;VERSIÓN: 1.0" style="text;align=left;verticalAlign=top;rounded=0;fontFamily=Helvetica;fontSize=12;spacing=2;horizontal=1;fontStyle=1;fontColor=default;labelBackgroundColor=none;labelBorderColor=none;textShadow=0;html=1;whiteSpace=wrap;shadow=0;glass=0;" parent="1" vertex="1">
          <mxGeometry x="10" y="10" width="330" height="120" as="geometry" />
        </mxCell>
        <mxCell id="ro7QubdlUAFsRSPaYgTF-16" style="edgeStyle=orthogonalEdgeStyle;rounded=0;orthogonalLoop=1;jettySize=auto;html=1;exitX=0.5;exitY=1;exitDx=0;exitDy=0;entryX=0.5;entryY=0;entryDx=0;entryDy=0;fontFamily=Helvetica;fontSize=12;spacing=20;" parent="1" source="ro7QubdlUAFsRSPaYgTF-5" edge="1">
          <mxGeometry relative="1" as="geometry">
            <mxPoint x="290" y="510" as="targetPoint" />
          </mxGeometry>
        </mxCell>
        <mxCell id="ro7QubdlUAFsRSPaYgTF-5" value="Las solicitudes son mostradas (RN15)" style="shape=parallelogram;perimeter=parallelogramPerimeter;whiteSpace=wrap;html=1;fixedSize=1;spacing=20;labelBorderColor=none;perimeterSpacing=2;shadow=0;rounded=0;gradientColor=none;spacingTop=0;fontFamily=Helvetica;fontSize=12;" parent="1" vertex="1">
          <mxGeometry x="180" y="400" width="220" height="60" as="geometry" />
        </mxCell>
        <mxCell id="ro7QubdlUAFsRSPaYgTF-8" style="edgeStyle=orthogonalEdgeStyle;rounded=0;orthogonalLoop=1;jettySize=auto;html=1;exitX=0;exitY=0.5;exitDx=0;exitDy=0;entryX=0.5;entryY=0;entryDx=0;entryDy=0;fontFamily=Helvetica;fontSize=12;spacing=20;" parent="1" source="ro7QubdlUAFsRSPaYgTF-7" target="ro7QubdlUAFsRSPaYgTF-5" edge="1">
          <mxGeometry relative="1" as="geometry" />
        </mxCell>
        <mxCell id="ro7QubdlUAFsRSPaYgTF-12" style="edgeStyle=orthogonalEdgeStyle;rounded=0;orthogonalLoop=1;jettySize=auto;html=1;exitX=1;exitY=0.5;exitDx=0;exitDy=0;entryX=0.5;entryY=0;entryDx=0;entryDy=0;fontFamily=Helvetica;fontSize=12;spacing=20;" parent="1" source="ro7QubdlUAFsRSPaYgTF-7" target="ro7QubdlUAFsRSPaYgTF-11" edge="1">
          <mxGeometry relative="1" as="geometry" />
        </mxCell>
        <mxCell id="ro7QubdlUAFsRSPaYgTF-7" value="Mostrar" style="rhombus;whiteSpace=wrap;html=1;fontFamily=Helvetica;fontSize=12;spacing=20;" parent="1" vertex="1">
          <mxGeometry x="385" y="290" width="80" height="80" as="geometry" />
        </mxCell>
        <mxCell id="ro7QubdlUAFsRSPaYgTF-9" value="Si existen solicitudes" style="text;html=1;align=center;verticalAlign=middle;whiteSpace=wrap;rounded=0;fontFamily=Helvetica;fontSize=12;spacing=20;" parent="1" vertex="1">
          <mxGeometry x="310" y="290" width="60" height="30" as="geometry" />
        </mxCell>
        <mxCell id="lwpGzG6zgtYE_S7jhwBC-24" style="edgeStyle=orthogonalEdgeStyle;rounded=0;orthogonalLoop=1;jettySize=auto;html=1;exitX=1;exitY=0.5;exitDx=0;exitDy=0;entryX=0;entryY=0.5;entryDx=0;entryDy=0;fontFamily=Helvetica;fontSize=12;spacing=20;" parent="1" source="ro7QubdlUAFsRSPaYgTF-11" target="lwpGzG6zgtYE_S7jhwBC-23" edge="1">
          <mxGeometry relative="1" as="geometry" />
        </mxCell>
        <mxCell id="ro7QubdlUAFsRSPaYgTF-11" value="Mostrar mensaje de error&lt;br style=&quot;font-size: 12px;&quot;&gt;&lt;i style=&quot;font-size: 12px;&quot;&gt;&lt;u style=&quot;font-size: 12px;&quot;&gt;&quot;&lt;span style=&quot;font-size: 12px;&quot; lang=&quot;ES&quot;&gt;No hay solicitudes para&lt;br style=&quot;font-size: 12px;&quot;&gt;revisión&lt;/span&gt;&quot;&lt;/u&gt;&lt;/i&gt;" style="shape=parallelogram;perimeter=parallelogramPerimeter;whiteSpace=wrap;html=1;fixedSize=1;spacing=20;labelBorderColor=none;perimeterSpacing=2;shadow=0;rounded=0;gradientColor=none;spacingTop=0;fontFamily=Helvetica;fontSize=12;" parent="1" vertex="1">
          <mxGeometry x="450" y="400" width="220" height="60" as="geometry" />
        </mxCell>
        <mxCell id="ro7QubdlUAFsRSPaYgTF-13" value="No existen solicitudes" style="text;html=1;align=center;verticalAlign=middle;whiteSpace=wrap;rounded=0;fontFamily=Helvetica;fontSize=12;spacing=20;" parent="1" vertex="1">
          <mxGeometry x="480" y="290" width="60" height="30" as="geometry" />
        </mxCell>
        <mxCell id="ro7QubdlUAFsRSPaYgTF-22" style="edgeStyle=orthogonalEdgeStyle;rounded=0;orthogonalLoop=1;jettySize=auto;html=1;exitX=0;exitY=0.5;exitDx=0;exitDy=0;entryX=0.5;entryY=0;entryDx=0;entryDy=0;fontFamily=Helvetica;fontSize=12;spacing=20;" parent="1" source="ro7QubdlUAFsRSPaYgTF-17" target="ro7QubdlUAFsRSPaYgTF-20" edge="1">
          <mxGeometry relative="1" as="geometry" />
        </mxCell>
        <mxCell id="ro7QubdlUAFsRSPaYgTF-17" value="Usuario busca por filtros" style="rhombus;whiteSpace=wrap;html=1;spacing=20;fontFamily=Helvetica;fontSize=12;" parent="1" vertex="1">
          <mxGeometry x="235" y="510" width="110" height="80" as="geometry" />
        </mxCell>
        <mxCell id="ro7QubdlUAFsRSPaYgTF-18" value="Si" style="text;html=1;align=center;verticalAlign=middle;whiteSpace=wrap;rounded=0;fontFamily=Helvetica;fontSize=12;spacing=20;" parent="1" vertex="1">
          <mxGeometry x="175" y="520" width="60" height="30" as="geometry" />
        </mxCell>
        <mxCell id="ro7QubdlUAFsRSPaYgTF-19" value="No" style="text;html=1;align=center;verticalAlign=middle;whiteSpace=wrap;rounded=0;fontFamily=Helvetica;fontSize=12;spacing=20;" parent="1" vertex="1">
          <mxGeometry x="345" y="520" width="60" height="30" as="geometry" />
        </mxCell>
        <mxCell id="ro7QubdlUAFsRSPaYgTF-23" style="edgeStyle=orthogonalEdgeStyle;rounded=0;orthogonalLoop=1;jettySize=auto;html=1;exitX=0;exitY=0.5;exitDx=0;exitDy=0;entryX=0;entryY=0.5;entryDx=0;entryDy=0;fontFamily=Helvetica;fontSize=12;spacing=20;" parent="1" source="ro7QubdlUAFsRSPaYgTF-20" target="ro7QubdlUAFsRSPaYgTF-2" edge="1">
          <mxGeometry relative="1" as="geometry">
            <Array as="points">
              <mxPoint x="50" y="620" />
              <mxPoint x="50" y="215" />
            </Array>
          </mxGeometry>
        </mxCell>
        <mxCell id="ro7QubdlUAFsRSPaYgTF-20" value="El usuario ingresa el parámetro de búsqueda" style="shape=parallelogram;perimeter=parallelogramPerimeter;whiteSpace=wrap;html=1;fixedSize=1;spacing=20;fontFamily=Helvetica;fontSize=12;" parent="1" vertex="1">
          <mxGeometry x="70" y="590" width="120" height="60" as="geometry" />
        </mxCell>
        <mxCell id="ro7QubdlUAFsRSPaYgTF-31" style="edgeStyle=orthogonalEdgeStyle;rounded=0;orthogonalLoop=1;jettySize=auto;html=1;exitX=1;exitY=0.5;exitDx=0;exitDy=0;entryX=0.5;entryY=0;entryDx=0;entryDy=0;fontFamily=Helvetica;fontSize=12;spacing=20;" parent="1" source="ro7QubdlUAFsRSPaYgTF-24" target="ro7QubdlUAFsRSPaYgTF-28" edge="1">
          <mxGeometry relative="1" as="geometry">
            <Array as="points">
              <mxPoint x="615" y="655" />
            </Array>
          </mxGeometry>
        </mxCell>
        <mxCell id="ro7QubdlUAFsRSPaYgTF-32" style="edgeStyle=orthogonalEdgeStyle;rounded=0;orthogonalLoop=1;jettySize=auto;html=1;exitX=0;exitY=0.5;exitDx=0;exitDy=0;entryX=0.5;entryY=0;entryDx=0;entryDy=0;fontFamily=Helvetica;fontSize=12;spacing=20;" parent="1" source="ro7QubdlUAFsRSPaYgTF-24" target="ro7QubdlUAFsRSPaYgTF-27" edge="1">
          <mxGeometry relative="1" as="geometry">
            <Array as="points">
              <mxPoint x="305" y="655" />
            </Array>
          </mxGeometry>
        </mxCell>
        <mxCell id="ro7QubdlUAFsRSPaYgTF-35" style="edgeStyle=orthogonalEdgeStyle;rounded=0;orthogonalLoop=1;jettySize=auto;html=1;exitX=0.5;exitY=1;exitDx=0;exitDy=0;entryX=0.5;entryY=0;entryDx=0;entryDy=0;fontFamily=Helvetica;fontSize=12;spacing=20;" parent="1" source="ro7QubdlUAFsRSPaYgTF-24" target="ro7QubdlUAFsRSPaYgTF-34" edge="1">
          <mxGeometry relative="1" as="geometry" />
        </mxCell>
        <mxCell id="ro7QubdlUAFsRSPaYgTF-24" value="&lt;span style=&quot;font-size: 12px;&quot; lang=&quot;ES&quot;&gt;El sistema habilita para cada&lt;br style=&quot;font-size: 12px;&quot;&gt;solicitud las siguientes opciones (RN13)&lt;/span&gt;" style="shape=parallelogram;perimeter=parallelogramPerimeter;whiteSpace=wrap;html=1;fixedSize=1;spacing=20;fontFamily=Helvetica;fontSize=12;" parent="1" vertex="1">
          <mxGeometry x="360" y="620" width="205" height="70" as="geometry" />
        </mxCell>
        <mxCell id="ro7QubdlUAFsRSPaYgTF-26" style="edgeStyle=orthogonalEdgeStyle;rounded=0;orthogonalLoop=1;jettySize=auto;html=1;exitX=1;exitY=0.5;exitDx=0;exitDy=0;entryX=0.528;entryY=0.04;entryDx=0;entryDy=0;entryPerimeter=0;fontFamily=Helvetica;fontSize=12;spacing=20;" parent="1" source="ro7QubdlUAFsRSPaYgTF-17" target="ro7QubdlUAFsRSPaYgTF-24" edge="1">
          <mxGeometry relative="1" as="geometry" />
        </mxCell>
        <mxCell id="lwpGzG6zgtYE_S7jhwBC-29" style="edgeStyle=orthogonalEdgeStyle;rounded=0;orthogonalLoop=1;jettySize=auto;html=1;exitX=0.5;exitY=1;exitDx=0;exitDy=0;entryX=0.5;entryY=0;entryDx=0;entryDy=0;fontFamily=Helvetica;fontSize=12;spacing=20;" parent="1" source="ro7QubdlUAFsRSPaYgTF-27" target="lwpGzG6zgtYE_S7jhwBC-28" edge="1">
          <mxGeometry relative="1" as="geometry" />
        </mxCell>
        <mxCell id="ro7QubdlUAFsRSPaYgTF-27" value="&lt;span style=&quot;font-size: 12px;&quot; lang=&quot;ES&quot;&gt;Confirmar Traslado&lt;/span&gt;" style="rhombus;whiteSpace=wrap;html=1;spacing=20;fontFamily=Helvetica;fontSize=12;" parent="1" vertex="1">
          <mxGeometry x="240" y="750" width="130" height="100" as="geometry" />
        </mxCell>
        <mxCell id="lwpGzG6zgtYE_S7jhwBC-25" style="edgeStyle=orthogonalEdgeStyle;rounded=0;orthogonalLoop=1;jettySize=auto;html=1;exitX=0.5;exitY=1;exitDx=0;exitDy=0;entryX=0.5;entryY=0;entryDx=0;entryDy=0;fontFamily=Helvetica;fontSize=12;spacing=20;" parent="1" source="ro7QubdlUAFsRSPaYgTF-28" target="ro7QubdlUAFsRSPaYgTF-36" edge="1">
          <mxGeometry relative="1" as="geometry" />
        </mxCell>
        <mxCell id="ro7QubdlUAFsRSPaYgTF-28" value="&lt;span style=&quot;font-size: 12px;&quot; lang=&quot;ES&quot;&gt;Analizar Muestra&lt;/span&gt;" style="rhombus;whiteSpace=wrap;html=1;spacing=20;fontFamily=Helvetica;fontSize=12;" parent="1" vertex="1">
          <mxGeometry x="550" y="750" width="130" height="100" as="geometry" />
        </mxCell>
        <mxCell id="lwpGzG6zgtYE_S7jhwBC-27" style="edgeStyle=orthogonalEdgeStyle;rounded=0;orthogonalLoop=1;jettySize=auto;html=1;exitX=0.5;exitY=1;exitDx=0;exitDy=0;entryX=0.5;entryY=0;entryDx=0;entryDy=0;fontFamily=Helvetica;fontSize=12;spacing=20;" parent="1" source="ro7QubdlUAFsRSPaYgTF-34" target="lwpGzG6zgtYE_S7jhwBC-26" edge="1">
          <mxGeometry relative="1" as="geometry" />
        </mxCell>
        <mxCell id="ro7QubdlUAFsRSPaYgTF-34" value="&lt;span style=&quot;font-size: 12px;&quot; lang=&quot;ES&quot;&gt;Analizar Porción de Muestra&lt;/span&gt;" style="rhombus;whiteSpace=wrap;html=1;spacing=20;fontFamily=Helvetica;fontSize=12;" parent="1" vertex="1">
          <mxGeometry x="397.5" y="750" width="130" height="100" as="geometry" />
        </mxCell>
        <mxCell id="lwpGzG6zgtYE_S7jhwBC-62" style="edgeStyle=orthogonalEdgeStyle;rounded=0;orthogonalLoop=1;jettySize=auto;html=1;exitX=1;exitY=0.5;exitDx=0;exitDy=0;entryX=1;entryY=0.5;entryDx=0;entryDy=0;fontSize=12;spacing=20;fontFamily=Helvetica;" parent="1" source="ro7QubdlUAFsRSPaYgTF-36" target="ro7QubdlUAFsRSPaYgTF-2" edge="1">
          <mxGeometry relative="1" as="geometry">
            <Array as="points">
              <mxPoint x="880" y="960" />
              <mxPoint x="880" y="215" />
            </Array>
          </mxGeometry>
        </mxCell>
        <mxCell id="ro7QubdlUAFsRSPaYgTF-36" value="FA06" style="ellipse;whiteSpace=wrap;html=1;aspect=fixed;fillColor=#b1ddf0;strokeWidth=3;fontFamily=Helvetica;fontSize=12;strokeColor=#10739e;fontStyle=1;spacing=20;" parent="1" vertex="1">
          <mxGeometry x="575" y="920" width="80" height="80" as="geometry" />
        </mxCell>
        <mxCell id="EG_bOI3C44eIuENxhIqS-3" style="edgeStyle=orthogonalEdgeStyle;rounded=0;orthogonalLoop=1;jettySize=auto;html=1;exitX=0.5;exitY=1;exitDx=0;exitDy=0;entryX=0.5;entryY=0;entryDx=0;entryDy=0;fontFamily=Helvetica;fontSize=12;spacing=20;" parent="1" source="EG_bOI3C44eIuENxhIqS-1" target="EG_bOI3C44eIuENxhIqS-2" edge="1">
          <mxGeometry relative="1" as="geometry" />
        </mxCell>
        <mxCell id="EG_bOI3C44eIuENxhIqS-1" value="FA06" style="ellipse;whiteSpace=wrap;html=1;aspect=fixed;fillColor=#b1ddf0;strokeWidth=3;fontFamily=Helvetica;fontSize=12;strokeColor=#10739e;fontStyle=1;spacing=20;" parent="1" vertex="1">
          <mxGeometry x="1590" y="90" width="80" height="80" as="geometry" />
        </mxCell>
        <mxCell id="EG_bOI3C44eIuENxhIqS-5" style="edgeStyle=orthogonalEdgeStyle;rounded=0;orthogonalLoop=1;jettySize=auto;html=1;exitX=0.5;exitY=1;exitDx=0;exitDy=0;entryX=0.5;entryY=0;entryDx=0;entryDy=0;fontFamily=Helvetica;fontSize=12;spacing=20;" parent="1" source="EG_bOI3C44eIuENxhIqS-2" target="EG_bOI3C44eIuENxhIqS-4" edge="1">
          <mxGeometry relative="1" as="geometry" />
        </mxCell>
        <mxCell id="EG_bOI3C44eIuENxhIqS-2" value="&lt;span style=&quot;font-size: 12px;&quot; lang=&quot;ES&quot;&gt;El sistema mostrara todos los&lt;br style=&quot;font-size: 12px;&quot;&gt;datos de la solicitud RN12&lt;/span&gt;" style="shape=parallelogram;perimeter=parallelogramPerimeter;whiteSpace=wrap;html=1;fixedSize=1;spacing=20;fontFamily=Helvetica;fontSize=12;" parent="1" vertex="1">
          <mxGeometry x="1520" y="230" width="220" height="55" as="geometry" />
        </mxCell>
        <mxCell id="EG_bOI3C44eIuENxhIqS-12" style="edgeStyle=orthogonalEdgeStyle;rounded=0;orthogonalLoop=1;jettySize=auto;html=1;exitX=0.5;exitY=1;exitDx=0;exitDy=0;entryX=0.5;entryY=0;entryDx=0;entryDy=0;fontFamily=Helvetica;fontSize=12;spacing=20;" parent="1" source="EG_bOI3C44eIuENxhIqS-4" target="EG_bOI3C44eIuENxhIqS-6" edge="1">
          <mxGeometry relative="1" as="geometry" />
        </mxCell>
        <mxCell id="EG_bOI3C44eIuENxhIqS-13" style="edgeStyle=orthogonalEdgeStyle;rounded=0;orthogonalLoop=1;jettySize=auto;html=1;exitX=0.5;exitY=1;exitDx=0;exitDy=0;entryX=0.5;entryY=0;entryDx=0;entryDy=0;fontFamily=Helvetica;fontSize=12;spacing=20;" parent="1" source="EG_bOI3C44eIuENxhIqS-4" target="EG_bOI3C44eIuENxhIqS-7" edge="1">
          <mxGeometry relative="1" as="geometry" />
        </mxCell>
        <mxCell id="EG_bOI3C44eIuENxhIqS-14" style="edgeStyle=orthogonalEdgeStyle;rounded=0;orthogonalLoop=1;jettySize=auto;html=1;exitX=0.5;exitY=1;exitDx=0;exitDy=0;entryX=0.5;entryY=0;entryDx=0;entryDy=0;fontFamily=Helvetica;fontSize=12;spacing=20;" parent="1" source="EG_bOI3C44eIuENxhIqS-4" target="EG_bOI3C44eIuENxhIqS-8" edge="1">
          <mxGeometry relative="1" as="geometry" />
        </mxCell>
        <mxCell id="EG_bOI3C44eIuENxhIqS-15" style="edgeStyle=orthogonalEdgeStyle;rounded=0;orthogonalLoop=1;jettySize=auto;html=1;exitX=0.5;exitY=1;exitDx=0;exitDy=0;entryX=0.5;entryY=0;entryDx=0;entryDy=0;fontFamily=Helvetica;fontSize=12;spacing=20;" parent="1" source="EG_bOI3C44eIuENxhIqS-4" target="EG_bOI3C44eIuENxhIqS-9" edge="1">
          <mxGeometry relative="1" as="geometry" />
        </mxCell>
        <mxCell id="EG_bOI3C44eIuENxhIqS-4" value="&lt;span style=&quot;font-size: 12px;&quot; lang=&quot;ES&quot;&gt;El sistema habilitara los&lt;br style=&quot;font-size: 12px;&quot;&gt;siguientes campos&lt;/span&gt;" style="rounded=1;whiteSpace=wrap;html=1;fontFamily=Helvetica;fontSize=12;spacing=20;" parent="1" vertex="1">
          <mxGeometry x="1520" y="332.5" width="220" height="60" as="geometry" />
        </mxCell>
        <mxCell id="EG_bOI3C44eIuENxhIqS-30" style="edgeStyle=orthogonalEdgeStyle;rounded=0;orthogonalLoop=1;jettySize=auto;html=1;exitX=0.5;exitY=1;exitDx=0;exitDy=0;entryX=0.5;entryY=0;entryDx=0;entryDy=0;fontFamily=Helvetica;fontSize=12;spacing=20;" parent="1" source="EG_bOI3C44eIuENxhIqS-6" target="EG_bOI3C44eIuENxhIqS-39" edge="1">
          <mxGeometry relative="1" as="geometry">
            <mxPoint x="1595" y="772.5" as="targetPoint" />
            <Array as="points">
              <mxPoint x="1225" y="662.5" />
              <mxPoint x="1310" y="662.5" />
            </Array>
          </mxGeometry>
        </mxCell>
        <mxCell id="EG_bOI3C44eIuENxhIqS-6" value="&lt;span style=&quot;font-size: 12px;&quot; lang=&quot;ES&quot;&gt;Certificado de ensayo&lt;/span&gt;" style="rhombus;whiteSpace=wrap;html=1;spacing=20;fontFamily=Helvetica;fontSize=12;" parent="1" vertex="1">
          <mxGeometry x="1160" y="462.5" width="130" height="90" as="geometry" />
        </mxCell>
        <mxCell id="EG_bOI3C44eIuENxhIqS-29" style="edgeStyle=orthogonalEdgeStyle;rounded=0;orthogonalLoop=1;jettySize=auto;html=1;exitX=0.5;exitY=1;exitDx=0;exitDy=0;entryX=0.5;entryY=0;entryDx=0;entryDy=0;fontFamily=Helvetica;fontSize=12;spacing=20;" parent="1" source="EG_bOI3C44eIuENxhIqS-7" target="EG_bOI3C44eIuENxhIqS-39" edge="1">
          <mxGeometry relative="1" as="geometry">
            <mxPoint x="1395" y="552.5" as="sourcePoint" />
            <mxPoint x="1310" y="812.5" as="targetPoint" />
            <Array as="points">
              <mxPoint x="1405" y="662.5" />
              <mxPoint x="1310" y="662.5" />
            </Array>
          </mxGeometry>
        </mxCell>
        <mxCell id="EG_bOI3C44eIuENxhIqS-7" value="&lt;span style=&quot;font-size: 12px;&quot; lang=&quot;ES&quot;&gt;Opinión técnica merceológica&lt;/span&gt;" style="rhombus;whiteSpace=wrap;html=1;spacing=20;fontFamily=Helvetica;fontSize=12;" parent="1" vertex="1">
          <mxGeometry x="1340" y="462.5" width="130" height="90" as="geometry" />
        </mxCell>
        <mxCell id="EG_bOI3C44eIuENxhIqS-27" style="edgeStyle=orthogonalEdgeStyle;rounded=0;orthogonalLoop=1;jettySize=auto;html=1;exitX=0.5;exitY=1;exitDx=0;exitDy=0;entryX=0.5;entryY=0;entryDx=0;entryDy=0;fontFamily=Helvetica;fontSize=12;spacing=20;" parent="1" source="EG_bOI3C44eIuENxhIqS-8" target="EG_bOI3C44eIuENxhIqS-39" edge="1">
          <mxGeometry relative="1" as="geometry">
            <mxPoint x="1605" y="552.5" as="sourcePoint" />
            <mxPoint x="1320" y="792.5" as="targetPoint" />
            <Array as="points">
              <mxPoint x="1595" y="662.5" />
              <mxPoint x="1310" y="662.5" />
            </Array>
          </mxGeometry>
        </mxCell>
        <mxCell id="EG_bOI3C44eIuENxhIqS-8" value="&lt;span style=&quot;font-size: 12px;&quot; lang=&quot;ES&quot;&gt;Informe&lt;/span&gt;" style="rhombus;whiteSpace=wrap;html=1;spacing=20;fontFamily=Helvetica;fontSize=12;" parent="1" vertex="1">
          <mxGeometry x="1530" y="462.5" width="130" height="90" as="geometry" />
        </mxCell>
        <mxCell id="EG_bOI3C44eIuENxhIqS-28" style="edgeStyle=orthogonalEdgeStyle;rounded=0;orthogonalLoop=1;jettySize=auto;html=1;exitX=0.5;exitY=1;exitDx=0;exitDy=0;entryX=0.5;entryY=0;entryDx=0;entryDy=0;fontFamily=Helvetica;fontSize=12;spacing=20;" parent="1" source="EG_bOI3C44eIuENxhIqS-9" target="EG_bOI3C44eIuENxhIqS-39" edge="1">
          <mxGeometry relative="1" as="geometry">
            <mxPoint x="1595" y="772.5" as="targetPoint" />
            <Array as="points">
              <mxPoint x="1770" y="662.5" />
              <mxPoint x="1310" y="662.5" />
            </Array>
          </mxGeometry>
        </mxCell>
        <mxCell id="EG_bOI3C44eIuENxhIqS-9" value="&lt;span style=&quot;font-size: 12px;&quot; lang=&quot;ES&quot;&gt;Documentos Análisis Externo&lt;/span&gt;" style="rhombus;whiteSpace=wrap;html=1;spacing=20;fontFamily=Helvetica;fontSize=12;" parent="1" vertex="1">
          <mxGeometry x="1705" y="462.5" width="130" height="90" as="geometry" />
        </mxCell>
        <mxCell id="lwpGzG6zgtYE_S7jhwBC-2" style="edgeStyle=orthogonalEdgeStyle;rounded=0;orthogonalLoop=1;jettySize=auto;html=1;exitX=0.5;exitY=1;exitDx=0;exitDy=0;entryX=0.5;entryY=0;entryDx=0;entryDy=0;fontFamily=Helvetica;fontSize=12;spacing=20;" parent="1" source="EG_bOI3C44eIuENxhIqS-10" target="lwpGzG6zgtYE_S7jhwBC-1" edge="1">
          <mxGeometry relative="1" as="geometry" />
        </mxCell>
        <mxCell id="EG_bOI3C44eIuENxhIqS-10" value="&lt;span style=&quot;font-size: 12px;&quot; lang=&quot;ES&quot;&gt;Porción de Muestra (Si/No)&lt;/span&gt;" style="shape=parallelogram;perimeter=parallelogramPerimeter;whiteSpace=wrap;html=1;fixedSize=1;spacing=20;fontFamily=Helvetica;fontSize=12;" parent="1" vertex="1">
          <mxGeometry x="1050" y="1000" width="130" height="90" as="geometry" />
        </mxCell>
        <mxCell id="EG_bOI3C44eIuENxhIqS-34" style="edgeStyle=orthogonalEdgeStyle;rounded=0;orthogonalLoop=1;jettySize=auto;html=1;exitX=1;exitY=0.5;exitDx=0;exitDy=0;fontFamily=Helvetica;fontSize=12;spacing=20;" parent="1" source="EG_bOI3C44eIuENxhIqS-31" target="EG_bOI3C44eIuENxhIqS-10" edge="1">
          <mxGeometry relative="1" as="geometry">
            <mxPoint x="1090" y="1160" as="targetPoint" />
            <Array as="points">
              <mxPoint x="1655" y="783" />
              <mxPoint x="1655" y="970" />
              <mxPoint x="1120" y="970" />
            </Array>
          </mxGeometry>
        </mxCell>
        <mxCell id="EG_bOI3C44eIuENxhIqS-35" style="edgeStyle=orthogonalEdgeStyle;rounded=0;orthogonalLoop=1;jettySize=auto;html=1;exitX=0;exitY=0.5;exitDx=0;exitDy=0;entryX=0.5;entryY=0;entryDx=0;entryDy=0;fontFamily=Helvetica;fontSize=12;spacing=20;" parent="1" source="EG_bOI3C44eIuENxhIqS-31" target="EG_bOI3C44eIuENxhIqS-33" edge="1">
          <mxGeometry relative="1" as="geometry" />
        </mxCell>
        <mxCell id="EG_bOI3C44eIuENxhIqS-31" value="Documento menor a 10MB" style="rhombus;whiteSpace=wrap;html=1;spacing=20;fontFamily=Helvetica;fontSize=12;" parent="1" vertex="1">
          <mxGeometry x="1587.5" y="742.5" width="135" height="80" as="geometry" />
        </mxCell>
        <mxCell id="EG_bOI3C44eIuENxhIqS-48" style="edgeStyle=orthogonalEdgeStyle;rounded=0;orthogonalLoop=1;jettySize=auto;html=1;exitX=0.5;exitY=1;exitDx=0;exitDy=0;entryX=0;entryY=0.5;entryDx=0;entryDy=0;fontFamily=Helvetica;fontSize=12;spacing=20;" parent="1" source="EG_bOI3C44eIuENxhIqS-33" target="EG_bOI3C44eIuENxhIqS-39" edge="1">
          <mxGeometry relative="1" as="geometry">
            <Array as="points">
              <mxPoint x="1490" y="932.5" />
              <mxPoint x="1090" y="932.5" />
              <mxPoint x="1090" y="752.5" />
            </Array>
          </mxGeometry>
        </mxCell>
        <mxCell id="EG_bOI3C44eIuENxhIqS-33" value="Mostrar mensaje de error" style="shape=parallelogram;perimeter=parallelogramPerimeter;whiteSpace=wrap;html=1;fixedSize=1;spacing=20;fontFamily=Helvetica;fontSize=12;" parent="1" vertex="1">
          <mxGeometry x="1430" y="832.5" width="120" height="60" as="geometry" />
        </mxCell>
        <mxCell id="EG_bOI3C44eIuENxhIqS-36" value="Si" style="text;html=1;align=center;verticalAlign=middle;whiteSpace=wrap;rounded=0;fontFamily=Helvetica;fontSize=12;spacing=20;" parent="1" vertex="1">
          <mxGeometry x="1610" y="820" width="60" height="30" as="geometry" />
        </mxCell>
        <mxCell id="EG_bOI3C44eIuENxhIqS-37" value="No" style="text;html=1;align=center;verticalAlign=middle;whiteSpace=wrap;rounded=0;fontFamily=Helvetica;fontSize=12;spacing=20;" parent="1" vertex="1">
          <mxGeometry x="1530" y="752.5" width="60" height="30" as="geometry" />
        </mxCell>
        <mxCell id="EG_bOI3C44eIuENxhIqS-44" style="edgeStyle=orthogonalEdgeStyle;rounded=0;orthogonalLoop=1;jettySize=auto;html=1;exitX=0.5;exitY=0;exitDx=0;exitDy=0;entryX=0;entryY=0.5;entryDx=0;entryDy=0;fontFamily=Helvetica;fontSize=12;spacing=20;" parent="1" source="EG_bOI3C44eIuENxhIqS-38" target="EG_bOI3C44eIuENxhIqS-39" edge="1">
          <mxGeometry relative="1" as="geometry">
            <Array as="points">
              <mxPoint x="1170" y="752.5" />
            </Array>
          </mxGeometry>
        </mxCell>
        <mxCell id="EG_bOI3C44eIuENxhIqS-38" value="FA02 Documentos no se cargaron correctamente" style="shape=parallelogram;perimeter=parallelogramPerimeter;whiteSpace=wrap;html=1;fixedSize=1;spacing=20;fontFamily=Helvetica;fontSize=12;" parent="1" vertex="1">
          <mxGeometry x="1110" y="810" width="120" height="92.5" as="geometry" />
        </mxCell>
        <mxCell id="EG_bOI3C44eIuENxhIqS-42" style="edgeStyle=orthogonalEdgeStyle;rounded=0;orthogonalLoop=1;jettySize=auto;html=1;exitX=0.5;exitY=1;exitDx=0;exitDy=0;entryX=0.5;entryY=0;entryDx=0;entryDy=0;fontFamily=Helvetica;fontSize=12;spacing=20;" parent="1" source="EG_bOI3C44eIuENxhIqS-39" target="EG_bOI3C44eIuENxhIqS-40" edge="1">
          <mxGeometry relative="1" as="geometry" />
        </mxCell>
        <mxCell id="EG_bOI3C44eIuENxhIqS-39" value="Cargar documentos PDF" style="shape=parallelogram;perimeter=parallelogramPerimeter;whiteSpace=wrap;html=1;fixedSize=1;spacing=20;fontFamily=Helvetica;fontSize=12;" parent="1" vertex="1">
          <mxGeometry x="1250" y="722.5" width="120" height="60" as="geometry" />
        </mxCell>
        <mxCell id="EG_bOI3C44eIuENxhIqS-45" style="edgeStyle=orthogonalEdgeStyle;rounded=0;orthogonalLoop=1;jettySize=auto;html=1;exitX=1;exitY=0.5;exitDx=0;exitDy=0;entryX=0.5;entryY=0;entryDx=0;entryDy=0;fontFamily=Helvetica;fontSize=12;spacing=20;" parent="1" source="EG_bOI3C44eIuENxhIqS-40" target="EG_bOI3C44eIuENxhIqS-31" edge="1">
          <mxGeometry relative="1" as="geometry">
            <Array as="points">
              <mxPoint x="1400" y="862.5" />
              <mxPoint x="1400" y="722.5" />
              <mxPoint x="1655" y="722.5" />
            </Array>
          </mxGeometry>
        </mxCell>
        <mxCell id="EG_bOI3C44eIuENxhIqS-40" value="&lt;span style=&quot;font-size: 12px;&quot; lang=&quot;ES&quot;&gt;1 o más&amp;nbsp;&lt;/span&gt;" style="rhombus;whiteSpace=wrap;html=1;fontFamily=Helvetica;fontSize=12;spacing=20;" parent="1" vertex="1">
          <mxGeometry x="1250" y="822.5" width="120" height="80" as="geometry" />
        </mxCell>
        <mxCell id="EG_bOI3C44eIuENxhIqS-46" value="Si" style="text;html=1;align=center;verticalAlign=middle;whiteSpace=wrap;rounded=0;fontFamily=Helvetica;fontSize=12;spacing=20;" parent="1" vertex="1">
          <mxGeometry x="1340" y="822.5" width="60" height="30" as="geometry" />
        </mxCell>
        <mxCell id="EG_bOI3C44eIuENxhIqS-47" value="No" style="text;html=1;align=center;verticalAlign=middle;whiteSpace=wrap;rounded=0;fontFamily=Helvetica;fontSize=12;spacing=20;" parent="1" vertex="1">
          <mxGeometry x="1220" y="822.5" width="60" height="30" as="geometry" />
        </mxCell>
        <mxCell id="EG_bOI3C44eIuENxhIqS-66" style="edgeStyle=orthogonalEdgeStyle;rounded=0;orthogonalLoop=1;jettySize=auto;html=1;exitX=1;exitY=0.5;exitDx=0;exitDy=0;entryX=0;entryY=0.5;entryDx=0;entryDy=0;fontFamily=Helvetica;fontSize=12;spacing=20;" parent="1" source="EG_bOI3C44eIuENxhIqS-55" target="EG_bOI3C44eIuENxhIqS-65" edge="1">
          <mxGeometry relative="1" as="geometry" />
        </mxCell>
        <mxCell id="lwpGzG6zgtYE_S7jhwBC-7" style="edgeStyle=orthogonalEdgeStyle;rounded=0;orthogonalLoop=1;jettySize=auto;html=1;exitX=0.5;exitY=0;exitDx=0;exitDy=0;entryX=0.5;entryY=1;entryDx=0;entryDy=0;fontFamily=Helvetica;fontSize=12;spacing=20;" parent="1" source="EG_bOI3C44eIuENxhIqS-55" target="EG_bOI3C44eIuENxhIqS-60" edge="1">
          <mxGeometry relative="1" as="geometry" />
        </mxCell>
        <mxCell id="EG_bOI3C44eIuENxhIqS-55" value="&lt;span style=&quot;font-size: 12px;&quot;&gt;El sistema valida que la&lt;/span&gt;&lt;br style=&quot;font-size: 12px;&quot;&gt;&lt;span style=&quot;font-size: 12px;&quot;&gt;muestra no cuente con porción de muestra creada&lt;/span&gt;" style="rhombus;whiteSpace=wrap;html=1;spacing=20;fontFamily=Helvetica;fontSize=12;" parent="1" vertex="1">
          <mxGeometry x="1370" y="1267.5" width="230" height="130" as="geometry" />
        </mxCell>
        <mxCell id="lwpGzG6zgtYE_S7jhwBC-8" style="edgeStyle=orthogonalEdgeStyle;rounded=0;orthogonalLoop=1;jettySize=auto;html=1;exitX=0.5;exitY=0;exitDx=0;exitDy=0;entryX=1;entryY=0.5;entryDx=0;entryDy=0;fontFamily=Helvetica;fontSize=12;spacing=20;" parent="1" source="EG_bOI3C44eIuENxhIqS-60" target="EG_bOI3C44eIuENxhIqS-10" edge="1">
          <mxGeometry relative="1" as="geometry" />
        </mxCell>
        <mxCell id="EG_bOI3C44eIuENxhIqS-60" value="El sistema despliega el mensaje de error: AN02 NO. 17" style="shape=parallelogram;perimeter=parallelogramPerimeter;whiteSpace=wrap;html=1;fixedSize=1;spacing=20;fontFamily=Helvetica;fontSize=12;" parent="1" vertex="1">
          <mxGeometry x="1405" y="1080" width="160" height="60" as="geometry" />
        </mxCell>
        <mxCell id="EG_bOI3C44eIuENxhIqS-63" value="Si encuentra" style="text;html=1;align=center;verticalAlign=middle;whiteSpace=wrap;rounded=0;fontFamily=Helvetica;fontSize=12;spacing=20;" parent="1" vertex="1">
          <mxGeometry x="1420" y="1230" width="60" height="30" as="geometry" />
        </mxCell>
        <mxCell id="EG_bOI3C44eIuENxhIqS-64" value="No encuentra" style="text;html=1;align=center;verticalAlign=middle;whiteSpace=wrap;rounded=0;fontFamily=Helvetica;fontSize=12;spacing=20;" parent="1" vertex="1">
          <mxGeometry x="1590" y="1340" width="60" height="30" as="geometry" />
        </mxCell>
        <mxCell id="EG_bOI3C44eIuENxhIqS-68" style="edgeStyle=orthogonalEdgeStyle;rounded=0;orthogonalLoop=1;jettySize=auto;html=1;exitX=0.5;exitY=1;exitDx=0;exitDy=0;entryX=0.5;entryY=0;entryDx=0;entryDy=0;fontFamily=Helvetica;fontSize=12;spacing=20;" parent="1" source="EG_bOI3C44eIuENxhIqS-65" target="EG_bOI3C44eIuENxhIqS-67" edge="1">
          <mxGeometry relative="1" as="geometry" />
        </mxCell>
        <mxCell id="EG_bOI3C44eIuENxhIqS-73" style="edgeStyle=orthogonalEdgeStyle;rounded=0;orthogonalLoop=1;jettySize=auto;html=1;exitX=0.5;exitY=0;exitDx=0;exitDy=0;entryX=0.5;entryY=1;entryDx=0;entryDy=0;fontFamily=Helvetica;fontSize=12;spacing=20;" parent="1" source="EG_bOI3C44eIuENxhIqS-65" target="EG_bOI3C44eIuENxhIqS-72" edge="1">
          <mxGeometry relative="1" as="geometry" />
        </mxCell>
        <mxCell id="EG_bOI3C44eIuENxhIqS-75" style="edgeStyle=orthogonalEdgeStyle;rounded=0;orthogonalLoop=1;jettySize=auto;html=1;exitX=1;exitY=0.5;exitDx=0;exitDy=0;entryX=0;entryY=0.5;entryDx=0;entryDy=0;fontFamily=Helvetica;fontSize=12;spacing=20;" parent="1" source="EG_bOI3C44eIuENxhIqS-65" target="EG_bOI3C44eIuENxhIqS-74" edge="1">
          <mxGeometry relative="1" as="geometry" />
        </mxCell>
        <mxCell id="EG_bOI3C44eIuENxhIqS-65" value="&lt;span style=&quot;font-size: 12px;&quot; lang=&quot;ES&quot;&gt;El sistema muestra mensaje de&lt;br style=&quot;font-size: 12px;&quot;&gt;alerta “¿Esta seguro que desea crear la porción de muestra?”&lt;/span&gt;" style="rhombus;whiteSpace=wrap;html=1;spacing=20;fontFamily=Helvetica;fontSize=12;" parent="1" vertex="1">
          <mxGeometry x="1680" y="1267.5" width="390" height="130" as="geometry" />
        </mxCell>
        <mxCell id="EG_bOI3C44eIuENxhIqS-67" value="Guardar" style="shape=parallelogram;perimeter=parallelogramPerimeter;whiteSpace=wrap;html=1;fixedSize=1;fontFamily=Helvetica;fontSize=12;spacing=20;" parent="1" vertex="1">
          <mxGeometry x="1815" y="1457.5" width="120" height="60" as="geometry" />
        </mxCell>
        <mxCell id="EG_bOI3C44eIuENxhIqS-70" value="Si" style="text;html=1;align=center;verticalAlign=middle;whiteSpace=wrap;rounded=0;fontFamily=Helvetica;fontSize=12;spacing=20;" parent="1" vertex="1">
          <mxGeometry x="1820" y="1397.5" width="60" height="30" as="geometry" />
        </mxCell>
        <mxCell id="EG_bOI3C44eIuENxhIqS-71" value="No" style="text;html=1;align=center;verticalAlign=middle;whiteSpace=wrap;rounded=0;fontFamily=Helvetica;fontSize=12;spacing=20;" parent="1" vertex="1">
          <mxGeometry x="2050" y="1302.5" width="60" height="30" as="geometry" />
        </mxCell>
        <mxCell id="lwpGzG6zgtYE_S7jhwBC-9" style="edgeStyle=orthogonalEdgeStyle;rounded=0;orthogonalLoop=1;jettySize=auto;html=1;exitX=0.5;exitY=0;exitDx=0;exitDy=0;entryX=1;entryY=0.5;entryDx=0;entryDy=0;fontFamily=Helvetica;fontSize=12;spacing=20;" parent="1" source="EG_bOI3C44eIuENxhIqS-72" target="EG_bOI3C44eIuENxhIqS-60" edge="1">
          <mxGeometry relative="1" as="geometry">
            <Array as="points">
              <mxPoint x="1875" y="1110" />
            </Array>
          </mxGeometry>
        </mxCell>
        <mxCell id="EG_bOI3C44eIuENxhIqS-72" value="Cancelar" style="shape=parallelogram;perimeter=parallelogramPerimeter;whiteSpace=wrap;html=1;fixedSize=1;fontFamily=Helvetica;fontSize=12;spacing=20;" parent="1" vertex="1">
          <mxGeometry x="1815" y="1172.5" width="120" height="60" as="geometry" />
        </mxCell>
        <mxCell id="lwpGzG6zgtYE_S7jhwBC-61" style="edgeStyle=orthogonalEdgeStyle;rounded=0;orthogonalLoop=1;jettySize=auto;html=1;exitX=0.5;exitY=1;exitDx=0;exitDy=0;entryX=1;entryY=0.5;entryDx=0;entryDy=0;fontSize=12;spacing=20;fontFamily=Helvetica;" parent="1" source="EG_bOI3C44eIuENxhIqS-74" target="lwpGzG6zgtYE_S7jhwBC-49" edge="1">
          <mxGeometry relative="1" as="geometry" />
        </mxCell>
        <mxCell id="EG_bOI3C44eIuENxhIqS-74" value="&lt;span style=&quot;font-size: 12px;&quot; lang=&quot;ES&quot;&gt;El sistema retorna al listado&lt;br style=&quot;font-size: 12px;&quot;&gt;de las solicitudes&lt;/span&gt;" style="shape=parallelogram;perimeter=parallelogramPerimeter;whiteSpace=wrap;html=1;fixedSize=1;fontFamily=Helvetica;fontSize=12;spacing=20;" parent="1" vertex="1">
          <mxGeometry x="2140" y="1302.5" width="220" height="60" as="geometry" />
        </mxCell>
        <mxCell id="EG_bOI3C44eIuENxhIqS-80" style="edgeStyle=orthogonalEdgeStyle;rounded=0;orthogonalLoop=1;jettySize=auto;html=1;exitX=0.5;exitY=1;exitDx=0;exitDy=0;entryX=0.5;entryY=0;entryDx=0;entryDy=0;fontFamily=Helvetica;fontSize=12;spacing=20;" parent="1" source="EG_bOI3C44eIuENxhIqS-76" target="EG_bOI3C44eIuENxhIqS-78" edge="1">
          <mxGeometry relative="1" as="geometry" />
        </mxCell>
        <mxCell id="EG_bOI3C44eIuENxhIqS-76" value="&lt;span style=&quot;font-size: 12px;&quot; lang=&quot;ES&quot;&gt;El sistema asigna código a la porción&lt;br style=&quot;font-size: 12px;&quot;&gt;de muestra&lt;/span&gt;" style="rounded=1;whiteSpace=wrap;html=1;fontFamily=Helvetica;fontSize=12;spacing=20;" parent="1" vertex="1">
          <mxGeometry x="1815" y="1557.5" width="135" height="60" as="geometry" />
        </mxCell>
        <mxCell id="EG_bOI3C44eIuENxhIqS-82" style="edgeStyle=orthogonalEdgeStyle;rounded=0;orthogonalLoop=1;jettySize=auto;html=1;exitX=0.5;exitY=1;exitDx=0;exitDy=0;entryX=0.5;entryY=0;entryDx=0;entryDy=0;fontFamily=Helvetica;fontSize=12;spacing=20;" parent="1" source="EG_bOI3C44eIuENxhIqS-78" target="EG_bOI3C44eIuENxhIqS-81" edge="1">
          <mxGeometry relative="1" as="geometry" />
        </mxCell>
        <mxCell id="EG_bOI3C44eIuENxhIqS-78" value="&lt;span style=&quot;font-size: 12px;&quot; lang=&quot;ES&quot;&gt;El sistema genera la etiqueta&lt;br style=&quot;font-size: 12px;&quot;&gt;de la porción de muestra con opción a visualización en PDF y la opción de&lt;br style=&quot;font-size: 12px;&quot;&gt;impresión desde la vista&lt;/span&gt;" style="rounded=1;whiteSpace=wrap;html=1;fontFamily=Helvetica;fontSize=12;spacing=20;" parent="1" vertex="1">
          <mxGeometry x="1758.75" y="1667.5" width="247.5" height="80" as="geometry" />
        </mxCell>
        <mxCell id="EG_bOI3C44eIuENxhIqS-79" style="edgeStyle=orthogonalEdgeStyle;rounded=0;orthogonalLoop=1;jettySize=auto;html=1;exitX=0.5;exitY=1;exitDx=0;exitDy=0;entryX=0.448;entryY=0.033;entryDx=0;entryDy=0;entryPerimeter=0;fontFamily=Helvetica;fontSize=12;spacing=20;" parent="1" source="EG_bOI3C44eIuENxhIqS-67" target="EG_bOI3C44eIuENxhIqS-76" edge="1">
          <mxGeometry relative="1" as="geometry" />
        </mxCell>
        <mxCell id="EG_bOI3C44eIuENxhIqS-84" style="edgeStyle=orthogonalEdgeStyle;rounded=0;orthogonalLoop=1;jettySize=auto;html=1;exitX=0.5;exitY=1;exitDx=0;exitDy=0;entryX=0.5;entryY=0;entryDx=0;entryDy=0;fontFamily=Helvetica;fontSize=12;spacing=20;" parent="1" source="EG_bOI3C44eIuENxhIqS-81" target="EG_bOI3C44eIuENxhIqS-83" edge="1">
          <mxGeometry relative="1" as="geometry" />
        </mxCell>
        <mxCell id="EG_bOI3C44eIuENxhIqS-81" value="&lt;span style=&quot;font-size: 12px;&quot; lang=&quot;ES&quot;&gt;El sistema asigna el estado a&lt;br style=&quot;font-size: 12px;&quot;&gt;la muestra “AN-En Análisis”.&amp;nbsp;&lt;/span&gt;" style="rounded=1;whiteSpace=wrap;html=1;fontFamily=Helvetica;fontSize=12;spacing=20;" parent="1" vertex="1">
          <mxGeometry x="1762.5" y="1797.5" width="240" height="60" as="geometry" />
        </mxCell>
        <mxCell id="EG_bOI3C44eIuENxhIqS-86" style="edgeStyle=orthogonalEdgeStyle;rounded=0;orthogonalLoop=1;jettySize=auto;html=1;exitX=0.5;exitY=1;exitDx=0;exitDy=0;entryX=0.5;entryY=0;entryDx=0;entryDy=0;fontFamily=Helvetica;fontSize=12;spacing=20;" parent="1" source="EG_bOI3C44eIuENxhIqS-83" target="EG_bOI3C44eIuENxhIqS-85" edge="1">
          <mxGeometry relative="1" as="geometry" />
        </mxCell>
        <mxCell id="EG_bOI3C44eIuENxhIqS-83" value="&lt;span style=&quot;font-size: 12px;&quot; lang=&quot;ES&quot;&gt;El sistema asigna el estado a&lt;br style=&quot;font-size: 12px;&quot;&gt;la porción de muestra “En análisis”.&amp;nbsp;&lt;/span&gt;" style="rounded=1;whiteSpace=wrap;html=1;fontFamily=Helvetica;fontSize=12;spacing=20;" parent="1" vertex="1">
          <mxGeometry x="1782.5" y="1907.5" width="200" height="60" as="geometry" />
        </mxCell>
        <mxCell id="EG_bOI3C44eIuENxhIqS-88" style="edgeStyle=orthogonalEdgeStyle;rounded=0;orthogonalLoop=1;jettySize=auto;html=1;exitX=0.5;exitY=1;exitDx=0;exitDy=0;entryX=0.5;entryY=0;entryDx=0;entryDy=0;fontFamily=Helvetica;fontSize=12;spacing=20;" parent="1" source="EG_bOI3C44eIuENxhIqS-85" target="EG_bOI3C44eIuENxhIqS-87" edge="1">
          <mxGeometry relative="1" as="geometry" />
        </mxCell>
        <mxCell id="EG_bOI3C44eIuENxhIqS-85" value="&lt;span style=&quot;font-size: 12px;&quot; lang=&quot;ES&quot;&gt;El sistema guarda información&lt;br style=&quot;font-size: 12px;&quot;&gt;en bitácora, con usuario, fecha y hora de la transacción&lt;/span&gt;" style="rounded=1;whiteSpace=wrap;html=1;fontFamily=Helvetica;fontSize=12;spacing=20;" parent="1" vertex="1">
          <mxGeometry x="1737.5" y="2017.5" width="290" height="60" as="geometry" />
        </mxCell>
        <mxCell id="lwpGzG6zgtYE_S7jhwBC-53" style="edgeStyle=orthogonalEdgeStyle;rounded=0;orthogonalLoop=1;jettySize=auto;html=1;exitX=0.5;exitY=1;exitDx=0;exitDy=0;entryX=0;entryY=0.5;entryDx=0;entryDy=0;fontFamily=Helvetica;fontSize=12;spacing=20;" parent="1" source="EG_bOI3C44eIuENxhIqS-87" target="lwpGzG6zgtYE_S7jhwBC-11" edge="1">
          <mxGeometry relative="1" as="geometry">
            <Array as="points">
              <mxPoint x="1883" y="2340" />
              <mxPoint x="920" y="2340" />
              <mxPoint x="920" y="1385" />
            </Array>
          </mxGeometry>
        </mxCell>
        <mxCell id="EG_bOI3C44eIuENxhIqS-87" value="&lt;span style=&quot;font-size: 12px;&quot; lang=&quot;ES&quot;&gt;El sistema muestra mensaje de&lt;br style=&quot;font-size: 12px;&quot;&gt;éxito&lt;b style=&quot;font-size: 12px;&quot;&gt; AN01 #5&lt;/b&gt;&lt;/span&gt;" style="rounded=1;whiteSpace=wrap;html=1;fontFamily=Helvetica;fontSize=12;spacing=20;" parent="1" vertex="1">
          <mxGeometry x="1807.5" y="2127.5" width="150" height="60" as="geometry" />
        </mxCell>
        <mxCell id="lwpGzG6zgtYE_S7jhwBC-3" style="edgeStyle=orthogonalEdgeStyle;rounded=0;orthogonalLoop=1;jettySize=auto;html=1;exitX=1;exitY=0.5;exitDx=0;exitDy=0;fontFamily=Helvetica;fontSize=12;spacing=20;" parent="1" source="lwpGzG6zgtYE_S7jhwBC-1" target="EG_bOI3C44eIuENxhIqS-55" edge="1">
          <mxGeometry relative="1" as="geometry" />
        </mxCell>
        <mxCell id="lwpGzG6zgtYE_S7jhwBC-12" style="edgeStyle=orthogonalEdgeStyle;rounded=0;orthogonalLoop=1;jettySize=auto;html=1;exitX=0.5;exitY=1;exitDx=0;exitDy=0;entryX=0.5;entryY=0;entryDx=0;entryDy=0;fontFamily=Helvetica;fontSize=12;spacing=20;" parent="1" source="lwpGzG6zgtYE_S7jhwBC-1" target="lwpGzG6zgtYE_S7jhwBC-11" edge="1">
          <mxGeometry relative="1" as="geometry" />
        </mxCell>
        <mxCell id="lwpGzG6zgtYE_S7jhwBC-1" value="&lt;span style=&quot;font-size: 12px;&quot; lang=&quot;ES&quot;&gt;valida que la porción de&lt;br style=&quot;font-size: 12px;&quot;&gt;muestra fue marcada como “No”&lt;/span&gt;" style="rhombus;whiteSpace=wrap;html=1;spacing=20;fontFamily=Helvetica;fontSize=12;" parent="1" vertex="1">
          <mxGeometry x="995" y="1170" width="240" height="130" as="geometry" />
        </mxCell>
        <mxCell id="lwpGzG6zgtYE_S7jhwBC-4" value="Si" style="text;html=1;align=center;verticalAlign=middle;whiteSpace=wrap;rounded=0;fontFamily=Helvetica;fontSize=12;spacing=20;" parent="1" vertex="1">
          <mxGeometry x="1235" y="1200" width="60" height="30" as="geometry" />
        </mxCell>
        <mxCell id="lwpGzG6zgtYE_S7jhwBC-5" value="No" style="text;html=1;align=center;verticalAlign=middle;whiteSpace=wrap;rounded=0;fontFamily=Helvetica;fontSize=12;spacing=20;" parent="1" vertex="1">
          <mxGeometry x="1030" y="1300" width="60" height="30" as="geometry" />
        </mxCell>
        <mxCell id="lwpGzG6zgtYE_S7jhwBC-18" style="edgeStyle=orthogonalEdgeStyle;rounded=0;orthogonalLoop=1;jettySize=auto;html=1;exitX=0.5;exitY=1;exitDx=0;exitDy=0;entryX=0;entryY=0.5;entryDx=0;entryDy=0;fontFamily=Helvetica;fontSize=12;spacing=20;" parent="1" source="lwpGzG6zgtYE_S7jhwBC-11" target="lwpGzG6zgtYE_S7jhwBC-13" edge="1">
          <mxGeometry relative="1" as="geometry">
            <Array as="points">
              <mxPoint x="1115" y="1450" />
              <mxPoint x="1020" y="1450" />
              <mxPoint x="1020" y="1518" />
            </Array>
          </mxGeometry>
        </mxCell>
        <mxCell id="lwpGzG6zgtYE_S7jhwBC-19" style="edgeStyle=orthogonalEdgeStyle;rounded=0;orthogonalLoop=1;jettySize=auto;html=1;exitX=0.5;exitY=1;exitDx=0;exitDy=0;entryX=0;entryY=0.5;entryDx=0;entryDy=0;fontFamily=Helvetica;fontSize=12;spacing=20;" parent="1" source="lwpGzG6zgtYE_S7jhwBC-11" target="lwpGzG6zgtYE_S7jhwBC-14" edge="1">
          <mxGeometry relative="1" as="geometry">
            <Array as="points">
              <mxPoint x="1115" y="1450" />
              <mxPoint x="1020" y="1450" />
              <mxPoint x="1020" y="1630" />
            </Array>
          </mxGeometry>
        </mxCell>
        <mxCell id="lwpGzG6zgtYE_S7jhwBC-20" style="edgeStyle=orthogonalEdgeStyle;rounded=0;orthogonalLoop=1;jettySize=auto;html=1;exitX=0.5;exitY=1;exitDx=0;exitDy=0;entryX=0;entryY=0.5;entryDx=0;entryDy=0;fontFamily=Helvetica;fontSize=12;spacing=20;" parent="1" source="lwpGzG6zgtYE_S7jhwBC-11" target="lwpGzG6zgtYE_S7jhwBC-15" edge="1">
          <mxGeometry relative="1" as="geometry">
            <Array as="points">
              <mxPoint x="1115" y="1450" />
              <mxPoint x="1020" y="1450" />
              <mxPoint x="1020" y="1740" />
            </Array>
          </mxGeometry>
        </mxCell>
        <mxCell id="lwpGzG6zgtYE_S7jhwBC-21" style="edgeStyle=orthogonalEdgeStyle;rounded=0;orthogonalLoop=1;jettySize=auto;html=1;exitX=0.5;exitY=1;exitDx=0;exitDy=0;entryX=0;entryY=0.5;entryDx=0;entryDy=0;fontFamily=Helvetica;fontSize=12;spacing=20;" parent="1" source="lwpGzG6zgtYE_S7jhwBC-11" target="lwpGzG6zgtYE_S7jhwBC-16" edge="1">
          <mxGeometry relative="1" as="geometry">
            <Array as="points">
              <mxPoint x="1115" y="1450" />
              <mxPoint x="1020" y="1450" />
              <mxPoint x="1020" y="1850" />
            </Array>
          </mxGeometry>
        </mxCell>
        <mxCell id="lwpGzG6zgtYE_S7jhwBC-22" style="edgeStyle=orthogonalEdgeStyle;rounded=0;orthogonalLoop=1;jettySize=auto;html=1;exitX=0.5;exitY=1;exitDx=0;exitDy=0;entryX=0;entryY=0.5;entryDx=0;entryDy=0;fontFamily=Helvetica;fontSize=12;spacing=20;" parent="1" source="lwpGzG6zgtYE_S7jhwBC-11" target="lwpGzG6zgtYE_S7jhwBC-17" edge="1">
          <mxGeometry relative="1" as="geometry">
            <Array as="points">
              <mxPoint x="1115" y="1450" />
              <mxPoint x="1020" y="1450" />
              <mxPoint x="1020" y="1960" />
            </Array>
          </mxGeometry>
        </mxCell>
        <mxCell id="lwpGzG6zgtYE_S7jhwBC-11" value="&lt;span style=&quot;font-size: 12px;&quot; lang=&quot;ES&quot;&gt;El sistema habilita las&lt;br style=&quot;font-size: 12px;&quot;&gt;opciones&lt;/span&gt;" style="shape=parallelogram;perimeter=parallelogramPerimeter;whiteSpace=wrap;html=1;fixedSize=1;fontFamily=Helvetica;fontSize=12;spacing=20;" parent="1" vertex="1">
          <mxGeometry x="1025" y="1355" width="180" height="60" as="geometry" />
        </mxCell>
        <mxCell id="lwpGzG6zgtYE_S7jhwBC-37" style="edgeStyle=orthogonalEdgeStyle;rounded=0;orthogonalLoop=1;jettySize=auto;html=1;exitX=1;exitY=0.5;exitDx=0;exitDy=0;entryX=0;entryY=0.5;entryDx=0;entryDy=0;fontFamily=Helvetica;fontSize=12;spacing=20;" parent="1" source="lwpGzG6zgtYE_S7jhwBC-13" target="lwpGzG6zgtYE_S7jhwBC-36" edge="1">
          <mxGeometry relative="1" as="geometry" />
        </mxCell>
        <mxCell id="lwpGzG6zgtYE_S7jhwBC-13" value="&lt;span style=&quot;font-size: 12px;&quot; lang=&quot;ES&quot;&gt;Devolución al solicitante&lt;/span&gt;" style="rhombus;whiteSpace=wrap;html=1;spacing=20;fontFamily=Helvetica;fontSize=12;" parent="1" vertex="1">
          <mxGeometry x="1060" y="1477.5" width="145" height="80" as="geometry" />
        </mxCell>
        <mxCell id="lwpGzG6zgtYE_S7jhwBC-56" style="edgeStyle=orthogonalEdgeStyle;rounded=0;orthogonalLoop=1;jettySize=auto;html=1;exitX=1;exitY=0.5;exitDx=0;exitDy=0;entryX=0;entryY=0.5;entryDx=0;entryDy=0;fontFamily=Helvetica;fontSize=12;spacing=20;" parent="1" source="lwpGzG6zgtYE_S7jhwBC-14" target="lwpGzG6zgtYE_S7jhwBC-55" edge="1">
          <mxGeometry relative="1" as="geometry" />
        </mxCell>
        <mxCell id="lwpGzG6zgtYE_S7jhwBC-14" value="&lt;span style=&quot;font-size: 12px;&quot; lang=&quot;ES&quot;&gt;Trasladar Almacenamiento de&lt;br style=&quot;font-size: 12px;&quot;&gt;Muestra&lt;/span&gt;" style="rhombus;whiteSpace=wrap;html=1;spacing=20;fontFamily=Helvetica;fontSize=12;" parent="1" vertex="1">
          <mxGeometry x="1060" y="1590" width="145" height="80" as="geometry" />
        </mxCell>
        <mxCell id="lwpGzG6zgtYE_S7jhwBC-95" style="edgeStyle=orthogonalEdgeStyle;rounded=0;orthogonalLoop=1;jettySize=auto;html=1;exitX=1;exitY=0.5;exitDx=0;exitDy=0;fontFamily=Helvetica;fontSize=12;spacing=20;" parent="1" source="lwpGzG6zgtYE_S7jhwBC-15" target="lwpGzG6zgtYE_S7jhwBC-94" edge="1">
          <mxGeometry relative="1" as="geometry" />
        </mxCell>
        <mxCell id="lwpGzG6zgtYE_S7jhwBC-15" value="&lt;span style=&quot;font-size: 12px;&quot; lang=&quot;ES&quot;&gt;Consumo Total&lt;/span&gt;" style="rhombus;whiteSpace=wrap;html=1;spacing=20;fontFamily=Helvetica;fontSize=12;" parent="1" vertex="1">
          <mxGeometry x="1060" y="1700" width="145" height="80" as="geometry" />
        </mxCell>
        <mxCell id="ZBJVuQkuqlIhL208MIH7-110" style="edgeStyle=orthogonalEdgeStyle;rounded=0;orthogonalLoop=1;jettySize=auto;html=1;exitX=1;exitY=0.5;exitDx=0;exitDy=0;entryX=0;entryY=0.5;entryDx=0;entryDy=0;" edge="1" parent="1" source="lwpGzG6zgtYE_S7jhwBC-16" target="ZBJVuQkuqlIhL208MIH7-109">
          <mxGeometry relative="1" as="geometry" />
        </mxCell>
        <mxCell id="lwpGzG6zgtYE_S7jhwBC-16" value="&lt;span style=&quot;font-size: 12px;&quot; lang=&quot;ES&quot;&gt;Análisis Externo&lt;/span&gt;" style="rhombus;whiteSpace=wrap;html=1;spacing=20;fontFamily=Helvetica;fontSize=12;" parent="1" vertex="1">
          <mxGeometry x="1060" y="1810" width="145" height="80" as="geometry" />
        </mxCell>
        <mxCell id="lwpGzG6zgtYE_S7jhwBC-60" style="edgeStyle=orthogonalEdgeStyle;rounded=0;orthogonalLoop=1;jettySize=auto;html=1;exitX=0.5;exitY=1;exitDx=0;exitDy=0;entryX=0;entryY=0.5;entryDx=0;entryDy=0;fontSize=12;spacing=20;fontFamily=Helvetica;" parent="1" source="lwpGzG6zgtYE_S7jhwBC-17" target="lwpGzG6zgtYE_S7jhwBC-49" edge="1">
          <mxGeometry relative="1" as="geometry" />
        </mxCell>
        <mxCell id="lwpGzG6zgtYE_S7jhwBC-17" value="&lt;span style=&quot;font-size: 12px;&quot; lang=&quot;ES&quot;&gt;Cancelar&lt;/span&gt;" style="rhombus;whiteSpace=wrap;html=1;spacing=20;fontFamily=Helvetica;fontSize=12;" parent="1" vertex="1">
          <mxGeometry x="1060" y="1920" width="145" height="80" as="geometry" />
        </mxCell>
        <mxCell id="lwpGzG6zgtYE_S7jhwBC-23" value="Fin" style="ellipse;whiteSpace=wrap;html=1;fontFamily=Helvetica;fontSize=12;fillColor=#fad9d5;strokeColor=#ae4132;fontStyle=1;strokeWidth=3;spacing=20;" parent="1" vertex="1">
          <mxGeometry x="730" y="390" width="120" height="80" as="geometry" />
        </mxCell>
        <mxCell id="ZBJVuQkuqlIhL208MIH7-105" style="edgeStyle=orthogonalEdgeStyle;rounded=0;orthogonalLoop=1;jettySize=auto;html=1;exitX=1;exitY=0.5;exitDx=0;exitDy=0;entryX=1;entryY=0.5;entryDx=0;entryDy=0;" edge="1" parent="1" source="lwpGzG6zgtYE_S7jhwBC-26" target="ro7QubdlUAFsRSPaYgTF-2">
          <mxGeometry relative="1" as="geometry">
            <Array as="points">
              <mxPoint x="880" y="1030" />
              <mxPoint x="880" y="215" />
            </Array>
          </mxGeometry>
        </mxCell>
        <mxCell id="lwpGzG6zgtYE_S7jhwBC-26" value="FA12" style="ellipse;whiteSpace=wrap;html=1;aspect=fixed;fillColor=#FFCCE6;strokeWidth=3;fontFamily=Helvetica;fontSize=12;strokeColor=#FF3399;fontStyle=1;spacing=20;" parent="1" vertex="1">
          <mxGeometry x="422.5" y="990" width="80" height="80" as="geometry" />
        </mxCell>
        <mxCell id="lwpGzG6zgtYE_S7jhwBC-31" style="edgeStyle=orthogonalEdgeStyle;rounded=0;orthogonalLoop=1;jettySize=auto;html=1;exitX=0.5;exitY=1;exitDx=0;exitDy=0;entryX=0.5;entryY=0;entryDx=0;entryDy=0;fontFamily=Helvetica;fontSize=12;spacing=20;" parent="1" source="lwpGzG6zgtYE_S7jhwBC-28" target="lwpGzG6zgtYE_S7jhwBC-30" edge="1">
          <mxGeometry relative="1" as="geometry" />
        </mxCell>
        <mxCell id="lwpGzG6zgtYE_S7jhwBC-28" value="&lt;span style=&quot;font-size: 12px;&quot; lang=&quot;ES&quot;&gt;El sistema cambia estado a la&lt;br style=&quot;font-size: 12px;&quot;&gt;muestra a “AN-En Análisis”.&amp;nbsp;&lt;/span&gt;" style="rounded=1;whiteSpace=wrap;html=1;spacing=20;fontFamily=Helvetica;fontSize=12;" parent="1" vertex="1">
          <mxGeometry x="220" y="920" width="170" height="80" as="geometry" />
        </mxCell>
        <mxCell id="lwpGzG6zgtYE_S7jhwBC-33" value="" style="edgeStyle=orthogonalEdgeStyle;rounded=0;orthogonalLoop=1;jettySize=auto;html=1;fontFamily=Helvetica;fontSize=12;spacing=20;" parent="1" source="lwpGzG6zgtYE_S7jhwBC-30" target="lwpGzG6zgtYE_S7jhwBC-32" edge="1">
          <mxGeometry relative="1" as="geometry" />
        </mxCell>
        <mxCell id="lwpGzG6zgtYE_S7jhwBC-30" value="&lt;span style=&quot;font-size: 12px;&quot; lang=&quot;ES&quot;&gt;El sistema guarda información&lt;br style=&quot;font-size: 12px;&quot;&gt;en bitácora, con usuario, fecha y hora de la transacción&lt;/span&gt;" style="rounded=1;whiteSpace=wrap;html=1;fontFamily=Helvetica;fontSize=12;spacing=20;" parent="1" vertex="1">
          <mxGeometry x="197.5" y="1050" width="215" height="60" as="geometry" />
        </mxCell>
        <mxCell id="lwpGzG6zgtYE_S7jhwBC-34" style="edgeStyle=orthogonalEdgeStyle;rounded=0;orthogonalLoop=1;jettySize=auto;html=1;exitX=0;exitY=0.5;exitDx=0;exitDy=0;entryX=0;entryY=0.5;entryDx=0;entryDy=0;fontFamily=Helvetica;fontSize=12;spacing=20;" parent="1" source="lwpGzG6zgtYE_S7jhwBC-32" target="ro7QubdlUAFsRSPaYgTF-2" edge="1">
          <mxGeometry relative="1" as="geometry">
            <Array as="points">
              <mxPoint x="50" y="1190" />
              <mxPoint x="50" y="215" />
            </Array>
          </mxGeometry>
        </mxCell>
        <mxCell id="lwpGzG6zgtYE_S7jhwBC-32" value="&lt;span style=&quot;font-size: 12px;&quot; lang=&quot;ES&quot;&gt;El sistema muestra mensaje de&lt;br style=&quot;font-size: 12px;&quot;&gt;éxito&amp;nbsp;&lt;/span&gt;" style="shape=parallelogram;perimeter=parallelogramPerimeter;whiteSpace=wrap;html=1;fixedSize=1;spacing=20;fontFamily=Helvetica;fontSize=12;" parent="1" vertex="1">
          <mxGeometry x="215" y="1160" width="180" height="60" as="geometry" />
        </mxCell>
        <mxCell id="lwpGzG6zgtYE_S7jhwBC-39" style="edgeStyle=orthogonalEdgeStyle;rounded=0;orthogonalLoop=1;jettySize=auto;html=1;exitX=0.5;exitY=1;exitDx=0;exitDy=0;entryX=0.5;entryY=0;entryDx=0;entryDy=0;fontFamily=Helvetica;fontSize=12;spacing=20;" parent="1" source="lwpGzG6zgtYE_S7jhwBC-36" target="lwpGzG6zgtYE_S7jhwBC-38" edge="1">
          <mxGeometry relative="1" as="geometry" />
        </mxCell>
        <mxCell id="lwpGzG6zgtYE_S7jhwBC-36" value="&lt;span style=&quot;font-size: 12px;&quot; lang=&quot;ES&quot;&gt;El sistema valida que al menos&lt;br style=&quot;font-size: 12px;&quot;&gt;1 documento fue cargado&lt;/span&gt;" style="rhombus;whiteSpace=wrap;html=1;spacing=20;fontFamily=Helvetica;fontSize=12;" parent="1" vertex="1">
          <mxGeometry x="1360" y="1477.5" width="250" height="80" as="geometry" />
        </mxCell>
        <mxCell id="lwpGzG6zgtYE_S7jhwBC-41" style="edgeStyle=orthogonalEdgeStyle;rounded=0;orthogonalLoop=1;jettySize=auto;html=1;exitX=0.5;exitY=1;exitDx=0;exitDy=0;entryX=0.5;entryY=0;entryDx=0;entryDy=0;fontFamily=Helvetica;fontSize=12;spacing=20;" parent="1" source="lwpGzG6zgtYE_S7jhwBC-38" target="lwpGzG6zgtYE_S7jhwBC-40" edge="1">
          <mxGeometry relative="1" as="geometry" />
        </mxCell>
        <mxCell id="lwpGzG6zgtYE_S7jhwBC-38" value="&lt;span style=&quot;font-size: 12px;&quot; lang=&quot;ES&quot;&gt;El sistema asigna el estado a la muestra “DS-Devuelta a solicitante interno” RN11&lt;/span&gt;" style="rounded=1;whiteSpace=wrap;html=1;fontFamily=Helvetica;fontSize=12;spacing=20;" parent="1" vertex="1">
          <mxGeometry x="1385" y="1607.5" width="200" height="60" as="geometry" />
        </mxCell>
        <mxCell id="lwpGzG6zgtYE_S7jhwBC-43" style="edgeStyle=orthogonalEdgeStyle;rounded=0;orthogonalLoop=1;jettySize=auto;html=1;exitX=0.5;exitY=1;exitDx=0;exitDy=0;entryX=0.5;entryY=0;entryDx=0;entryDy=0;fontFamily=Helvetica;fontSize=12;spacing=20;" parent="1" source="lwpGzG6zgtYE_S7jhwBC-40" target="lwpGzG6zgtYE_S7jhwBC-42" edge="1">
          <mxGeometry relative="1" as="geometry" />
        </mxCell>
        <mxCell id="lwpGzG6zgtYE_S7jhwBC-40" value="&lt;span style=&quot;font-size: 12px;&quot; lang=&quot;ES&quot;&gt;El sistema asigna estado a la solicitud “Finalizada” RN11&lt;/span&gt;" style="rounded=1;whiteSpace=wrap;html=1;fontFamily=Helvetica;fontSize=12;spacing=20;" parent="1" vertex="1">
          <mxGeometry x="1387.5" y="1720" width="195" height="60" as="geometry" />
        </mxCell>
        <mxCell id="lwpGzG6zgtYE_S7jhwBC-45" style="edgeStyle=orthogonalEdgeStyle;rounded=0;orthogonalLoop=1;jettySize=auto;html=1;exitX=0.5;exitY=1;exitDx=0;exitDy=0;entryX=0.5;entryY=0;entryDx=0;entryDy=0;fontFamily=Helvetica;fontSize=12;spacing=20;" parent="1" source="lwpGzG6zgtYE_S7jhwBC-42" target="lwpGzG6zgtYE_S7jhwBC-44" edge="1">
          <mxGeometry relative="1" as="geometry" />
        </mxCell>
        <mxCell id="lwpGzG6zgtYE_S7jhwBC-42" value="&lt;span style=&quot;font-size: 12px;&quot; lang=&quot;ES&quot;&gt;El sistema envía un mensaje&lt;br style=&quot;font-size: 12px;&quot;&gt;vía correo electrónico al usuario para notificación “Correo Electrónico del&lt;br style=&quot;font-size: 12px;&quot;&gt;Solicitante”. &lt;b style=&quot;font-size: 12px;&quot;&gt;RN09 #4&lt;/b&gt;&lt;/span&gt;" style="rounded=1;whiteSpace=wrap;html=1;fontFamily=Helvetica;fontSize=12;spacing=20;" parent="1" vertex="1">
          <mxGeometry x="1347.5" y="1830" width="275" height="80" as="geometry" />
        </mxCell>
        <mxCell id="lwpGzG6zgtYE_S7jhwBC-48" style="edgeStyle=orthogonalEdgeStyle;rounded=0;orthogonalLoop=1;jettySize=auto;html=1;exitX=0.5;exitY=1;exitDx=0;exitDy=0;entryX=0.5;entryY=0;entryDx=0;entryDy=0;fontFamily=Helvetica;fontSize=12;spacing=20;" parent="1" source="lwpGzG6zgtYE_S7jhwBC-44" target="lwpGzG6zgtYE_S7jhwBC-46" edge="1">
          <mxGeometry relative="1" as="geometry" />
        </mxCell>
        <mxCell id="lwpGzG6zgtYE_S7jhwBC-44" value="&lt;span style=&quot;font-size: 12px;&quot; lang=&quot;ES&quot;&gt;El sistema guarda información&lt;br style=&quot;font-size: 12px;&quot;&gt;en bitácora, con usuario, fecha y hora de la transacción. &lt;b style=&quot;font-size: 12px;&quot;&gt;RN17&lt;/b&gt;&lt;/span&gt;" style="rounded=1;whiteSpace=wrap;html=1;fontFamily=Helvetica;fontSize=12;spacing=20;" parent="1" vertex="1">
          <mxGeometry x="1370" y="1957.5" width="230" height="60" as="geometry" />
        </mxCell>
        <mxCell id="lwpGzG6zgtYE_S7jhwBC-50" style="edgeStyle=orthogonalEdgeStyle;rounded=0;orthogonalLoop=1;jettySize=auto;html=1;exitX=0.5;exitY=1;exitDx=0;exitDy=0;entryX=0.5;entryY=0;entryDx=0;entryDy=0;fontFamily=Helvetica;fontSize=12;spacing=20;" parent="1" source="lwpGzG6zgtYE_S7jhwBC-46" target="lwpGzG6zgtYE_S7jhwBC-49" edge="1">
          <mxGeometry relative="1" as="geometry" />
        </mxCell>
        <mxCell id="lwpGzG6zgtYE_S7jhwBC-46" value="&lt;span style=&quot;font-size: 12px;&quot; lang=&quot;ES&quot;&gt;El sistema muestra mensaje de&lt;br style=&quot;font-size: 12px;&quot;&gt;éxito &lt;b style=&quot;font-size: 12px;&quot;&gt;AN01 #4&lt;/b&gt;&lt;/span&gt;" style="rounded=1;whiteSpace=wrap;html=1;fontFamily=Helvetica;fontSize=12;spacing=20;" parent="1" vertex="1">
          <mxGeometry x="1405" y="2067.5" width="160" height="60" as="geometry" />
        </mxCell>
        <mxCell id="lwpGzG6zgtYE_S7jhwBC-49" value="FA06 FIN" style="ellipse;whiteSpace=wrap;html=1;aspect=fixed;fontFamily=Helvetica;fontSize=12;fillColor=#b1ddf0;strokeColor=#10739e;strokeWidth=2;fontStyle=1;spacing=20;" parent="1" vertex="1">
          <mxGeometry x="1445" y="2210" width="80" height="80" as="geometry" />
        </mxCell>
        <mxCell id="lwpGzG6zgtYE_S7jhwBC-52" style="edgeStyle=orthogonalEdgeStyle;rounded=0;orthogonalLoop=1;jettySize=auto;html=1;exitX=0;exitY=0.5;exitDx=0;exitDy=0;entryX=1;entryY=0;entryDx=0;entryDy=0;strokeWidth=2;dashed=1;endArrow=none;endFill=0;fontFamily=Helvetica;fontSize=12;spacing=20;" parent="1" source="lwpGzG6zgtYE_S7jhwBC-51" target="EG_bOI3C44eIuENxhIqS-55" edge="1">
          <mxGeometry relative="1" as="geometry" />
        </mxCell>
        <mxCell id="lwpGzG6zgtYE_S7jhwBC-51" value="FA07" style="ellipse;whiteSpace=wrap;html=1;aspect=fixed;strokeWidth=3;fillColor=#bac8d3;fontFamily=Helvetica;fontSize=12;strokeColor=#23445d;fontStyle=1;spacing=20;" parent="1" vertex="1">
          <mxGeometry x="1610" y="1180" width="80" height="80" as="geometry" />
        </mxCell>
        <mxCell id="lwpGzG6zgtYE_S7jhwBC-93" style="edgeStyle=orthogonalEdgeStyle;rounded=0;orthogonalLoop=1;jettySize=auto;html=1;exitX=1;exitY=0.5;exitDx=0;exitDy=0;entryX=0;entryY=0.5;entryDx=0;entryDy=0;fontFamily=Helvetica;fontSize=12;spacing=20;" parent="1" source="lwpGzG6zgtYE_S7jhwBC-55" target="lwpGzG6zgtYE_S7jhwBC-49" edge="1">
          <mxGeometry relative="1" as="geometry">
            <Array as="points">
              <mxPoint x="1340" y="1630" />
              <mxPoint x="1340" y="2250" />
            </Array>
          </mxGeometry>
        </mxCell>
        <mxCell id="lwpGzG6zgtYE_S7jhwBC-55" value="FA08" style="ellipse;whiteSpace=wrap;html=1;aspect=fixed;fontFamily=Helvetica;fontSize=12;fillColor=#d0cee2;strokeColor=#56517e;strokeWidth=3;fontStyle=1;spacing=20;" parent="1" vertex="1">
          <mxGeometry x="1240" y="1590" width="80" height="80" as="geometry" />
        </mxCell>
        <mxCell id="lwpGzG6zgtYE_S7jhwBC-66" style="edgeStyle=orthogonalEdgeStyle;rounded=0;orthogonalLoop=1;jettySize=auto;html=1;exitX=0.5;exitY=1;exitDx=0;exitDy=0;entryX=0.5;entryY=0;entryDx=0;entryDy=0;fontSize=12;spacing=20;fontFamily=Helvetica;" parent="1" source="lwpGzG6zgtYE_S7jhwBC-64" target="lwpGzG6zgtYE_S7jhwBC-65" edge="1">
          <mxGeometry relative="1" as="geometry" />
        </mxCell>
        <mxCell id="lwpGzG6zgtYE_S7jhwBC-64" value="FA08" style="ellipse;whiteSpace=wrap;html=1;aspect=fixed;fontFamily=Helvetica;fontSize=12;fillColor=#d0cee2;strokeColor=#56517e;strokeWidth=3;fontStyle=1;spacing=20;" parent="1" vertex="1">
          <mxGeometry x="2480" y="90" width="80" height="80" as="geometry" />
        </mxCell>
        <mxCell id="lwpGzG6zgtYE_S7jhwBC-69" style="edgeStyle=orthogonalEdgeStyle;rounded=0;orthogonalLoop=1;jettySize=auto;html=1;exitX=0.5;exitY=1;exitDx=0;exitDy=0;entryX=0.5;entryY=0;entryDx=0;entryDy=0;fontFamily=Helvetica;fontSize=12;spacing=20;" parent="1" source="lwpGzG6zgtYE_S7jhwBC-65" target="lwpGzG6zgtYE_S7jhwBC-68" edge="1">
          <mxGeometry relative="1" as="geometry" />
        </mxCell>
        <mxCell id="lwpGzG6zgtYE_S7jhwBC-65" value="&lt;span style=&quot;font-size: 12px;&quot; lang=&quot;ES&quot;&gt;El sistema muestra un listado&lt;br style=&quot;font-size: 12px;&quot;&gt;de los usuarios activos con nombre de actor Almacenamiento de Muestras. &lt;b style=&quot;font-size: 12px;&quot;&gt;RN16&lt;/b&gt;&lt;/span&gt;" style="shape=parallelogram;perimeter=parallelogramPerimeter;whiteSpace=wrap;html=1;fixedSize=1;fontSize=12;spacing=20;fontFamily=Helvetica;" parent="1" vertex="1">
          <mxGeometry x="2365" y="230" width="310" height="60" as="geometry" />
        </mxCell>
        <mxCell id="lwpGzG6zgtYE_S7jhwBC-67" style="edgeStyle=orthogonalEdgeStyle;rounded=0;orthogonalLoop=1;jettySize=auto;html=1;exitX=0;exitY=0.5;exitDx=0;exitDy=0;entryX=0.922;entryY=0.573;entryDx=0;entryDy=0;entryPerimeter=0;fontFamily=Helvetica;fontSize=12;spacing=20;" parent="1" source="EG_bOI3C44eIuENxhIqS-40" target="EG_bOI3C44eIuENxhIqS-38" edge="1">
          <mxGeometry relative="1" as="geometry" />
        </mxCell>
        <mxCell id="lwpGzG6zgtYE_S7jhwBC-71" style="edgeStyle=orthogonalEdgeStyle;rounded=0;orthogonalLoop=1;jettySize=auto;html=1;exitX=0.5;exitY=1;exitDx=0;exitDy=0;entryX=0.5;entryY=0;entryDx=0;entryDy=0;fontFamily=Helvetica;fontSize=12;spacing=20;" parent="1" source="lwpGzG6zgtYE_S7jhwBC-68" target="lwpGzG6zgtYE_S7jhwBC-70" edge="1">
          <mxGeometry relative="1" as="geometry" />
        </mxCell>
        <mxCell id="lwpGzG6zgtYE_S7jhwBC-68" value="&lt;span lang=&quot;ES&quot; style=&quot;font-size: 12px;&quot;&gt;El usuario selecciona a quien&lt;br style=&quot;font-size: 12px;&quot;&gt;desea asignarlo&lt;/span&gt;" style="shape=parallelogram;perimeter=parallelogramPerimeter;whiteSpace=wrap;html=1;fixedSize=1;fontFamily=Helvetica;fontSize=12;spacing=20;" parent="1" vertex="1">
          <mxGeometry x="2405" y="340" width="230" height="60" as="geometry" />
        </mxCell>
        <mxCell id="lwpGzG6zgtYE_S7jhwBC-76" style="edgeStyle=orthogonalEdgeStyle;rounded=0;orthogonalLoop=1;jettySize=auto;html=1;exitX=1;exitY=0.5;exitDx=0;exitDy=0;entryX=0;entryY=0.5;entryDx=0;entryDy=0;fontFamily=Helvetica;fontSize=12;spacing=20;" parent="1" source="lwpGzG6zgtYE_S7jhwBC-70" target="lwpGzG6zgtYE_S7jhwBC-75" edge="1">
          <mxGeometry relative="1" as="geometry" />
        </mxCell>
        <mxCell id="lwpGzG6zgtYE_S7jhwBC-77" style="edgeStyle=orthogonalEdgeStyle;rounded=0;orthogonalLoop=1;jettySize=auto;html=1;exitX=0.5;exitY=1;exitDx=0;exitDy=0;entryX=0.5;entryY=0;entryDx=0;entryDy=0;fontFamily=Helvetica;fontSize=12;spacing=20;" parent="1" source="lwpGzG6zgtYE_S7jhwBC-70" target="lwpGzG6zgtYE_S7jhwBC-74" edge="1">
          <mxGeometry relative="1" as="geometry" />
        </mxCell>
        <mxCell id="lwpGzG6zgtYE_S7jhwBC-79" style="edgeStyle=orthogonalEdgeStyle;rounded=0;orthogonalLoop=1;jettySize=auto;html=1;exitX=0;exitY=0.5;exitDx=0;exitDy=0;entryX=1;entryY=0.5;entryDx=0;entryDy=0;fontFamily=Helvetica;fontSize=12;spacing=20;" parent="1" source="lwpGzG6zgtYE_S7jhwBC-70" target="lwpGzG6zgtYE_S7jhwBC-78" edge="1">
          <mxGeometry relative="1" as="geometry" />
        </mxCell>
        <mxCell id="lwpGzG6zgtYE_S7jhwBC-70" value="&lt;span lang=&quot;ES&quot; style=&quot;font-size: 12px;&quot;&gt;¿Esta seguro que desea trasladar&lt;br style=&quot;font-size: 12px;&quot;&gt;la muestra para almacenamiento de muestra?&lt;/span&gt;" style="rhombus;whiteSpace=wrap;html=1;fontFamily=Helvetica;fontSize=12;spacing=20;" parent="1" vertex="1">
          <mxGeometry x="2245" y="472.5" width="550" height="80" as="geometry" />
        </mxCell>
        <mxCell id="lwpGzG6zgtYE_S7jhwBC-72" value="Si" style="text;html=1;align=center;verticalAlign=middle;whiteSpace=wrap;rounded=0;fontFamily=Helvetica;fontSize=12;spacing=20;" parent="1" vertex="1">
          <mxGeometry x="2530" y="552.5" width="60" height="30" as="geometry" />
        </mxCell>
        <mxCell id="lwpGzG6zgtYE_S7jhwBC-73" value="No" style="text;html=1;align=center;verticalAlign=middle;whiteSpace=wrap;rounded=0;fontFamily=Helvetica;fontSize=12;spacing=20;" parent="1" vertex="1">
          <mxGeometry x="2730" y="470" width="60" height="30" as="geometry" />
        </mxCell>
        <mxCell id="lwpGzG6zgtYE_S7jhwBC-81" style="edgeStyle=orthogonalEdgeStyle;rounded=0;orthogonalLoop=1;jettySize=auto;html=1;exitX=0.5;exitY=1;exitDx=0;exitDy=0;entryX=0.5;entryY=0;entryDx=0;entryDy=0;fontFamily=Helvetica;fontSize=12;spacing=20;" parent="1" source="lwpGzG6zgtYE_S7jhwBC-74" target="lwpGzG6zgtYE_S7jhwBC-80" edge="1">
          <mxGeometry relative="1" as="geometry" />
        </mxCell>
        <mxCell id="lwpGzG6zgtYE_S7jhwBC-74" value="Guardar" style="shape=parallelogram;perimeter=parallelogramPerimeter;whiteSpace=wrap;html=1;fixedSize=1;fontFamily=Helvetica;fontSize=12;spacing=20;" parent="1" vertex="1">
          <mxGeometry x="2460" y="600" width="120" height="60" as="geometry" />
        </mxCell>
        <mxCell id="lwpGzG6zgtYE_S7jhwBC-75" value="Guardar" style="shape=parallelogram;perimeter=parallelogramPerimeter;whiteSpace=wrap;html=1;fixedSize=1;fontFamily=Helvetica;fontSize=12;spacing=20;" parent="1" vertex="1">
          <mxGeometry x="2830" y="482.5" width="120" height="60" as="geometry" />
        </mxCell>
        <mxCell id="lwpGzG6zgtYE_S7jhwBC-92" style="edgeStyle=orthogonalEdgeStyle;rounded=0;orthogonalLoop=1;jettySize=auto;html=1;exitX=0.5;exitY=1;exitDx=0;exitDy=0;entryX=1;entryY=0.5;entryDx=0;entryDy=0;fontFamily=Helvetica;fontSize=12;spacing=20;" parent="1" source="lwpGzG6zgtYE_S7jhwBC-75" target="lwpGzG6zgtYE_S7jhwBC-90" edge="1">
          <mxGeometry relative="1" as="geometry">
            <Array as="points">
              <mxPoint x="2890" y="1330" />
            </Array>
          </mxGeometry>
        </mxCell>
        <mxCell id="lwpGzG6zgtYE_S7jhwBC-97" style="edgeStyle=orthogonalEdgeStyle;rounded=0;orthogonalLoop=1;jettySize=auto;html=1;exitX=0.5;exitY=0;exitDx=0;exitDy=0;entryX=0;entryY=0.5;entryDx=0;entryDy=0;fontFamily=Helvetica;fontSize=12;spacing=20;" parent="1" source="lwpGzG6zgtYE_S7jhwBC-78" target="lwpGzG6zgtYE_S7jhwBC-65" edge="1">
          <mxGeometry relative="1" as="geometry">
            <Array as="points">
              <mxPoint x="2120" y="260" />
            </Array>
          </mxGeometry>
        </mxCell>
        <mxCell id="lwpGzG6zgtYE_S7jhwBC-78" value="Cancelar" style="shape=parallelogram;perimeter=parallelogramPerimeter;whiteSpace=wrap;html=1;fixedSize=1;fontFamily=Helvetica;fontSize=12;spacing=20;" parent="1" vertex="1">
          <mxGeometry x="2060" y="482.5" width="120" height="60" as="geometry" />
        </mxCell>
        <mxCell id="lwpGzG6zgtYE_S7jhwBC-83" style="edgeStyle=orthogonalEdgeStyle;rounded=0;orthogonalLoop=1;jettySize=auto;html=1;exitX=0.5;exitY=1;exitDx=0;exitDy=0;entryX=0.5;entryY=0;entryDx=0;entryDy=0;fontFamily=Helvetica;fontSize=12;spacing=20;" parent="1" source="lwpGzG6zgtYE_S7jhwBC-80" target="lwpGzG6zgtYE_S7jhwBC-82" edge="1">
          <mxGeometry relative="1" as="geometry" />
        </mxCell>
        <mxCell id="lwpGzG6zgtYE_S7jhwBC-80" value="&lt;span lang=&quot;ES&quot; style=&quot;font-size: 12px;&quot;&gt;El sistema asigna el estado a&lt;br style=&quot;font-size: 12px;&quot;&gt;la muestra “TA-Traslado Almacenamiento”. &lt;b style=&quot;font-size: 12px;&quot;&gt;RN11&lt;/b&gt;&lt;/span&gt;" style="rounded=1;whiteSpace=wrap;html=1;fontFamily=Helvetica;fontSize=12;spacing=20;" parent="1" vertex="1">
          <mxGeometry x="2395" y="710" width="250" height="60" as="geometry" />
        </mxCell>
        <mxCell id="lwpGzG6zgtYE_S7jhwBC-85" style="edgeStyle=orthogonalEdgeStyle;rounded=0;orthogonalLoop=1;jettySize=auto;html=1;exitX=0.5;exitY=1;exitDx=0;exitDy=0;entryX=0.5;entryY=0;entryDx=0;entryDy=0;fontFamily=Helvetica;fontSize=12;spacing=20;" parent="1" source="lwpGzG6zgtYE_S7jhwBC-82" target="lwpGzG6zgtYE_S7jhwBC-84" edge="1">
          <mxGeometry relative="1" as="geometry" />
        </mxCell>
        <mxCell id="lwpGzG6zgtYE_S7jhwBC-82" value="&lt;span lang=&quot;ES&quot; style=&quot;font-size: 12px;&quot;&gt;El sistema traslada la solicitud a la bandeja del usuario y asigna estado a la solicitud “Asignada Almacenamiento de Muestra”. &lt;b style=&quot;font-size: 12px;&quot;&gt;RN11&lt;/b&gt;&lt;/span&gt;" style="rounded=1;whiteSpace=wrap;html=1;fontFamily=Helvetica;fontSize=12;spacing=20;" parent="1" vertex="1">
          <mxGeometry x="2355" y="820" width="330" height="60" as="geometry" />
        </mxCell>
        <mxCell id="lwpGzG6zgtYE_S7jhwBC-87" style="edgeStyle=orthogonalEdgeStyle;rounded=0;orthogonalLoop=1;jettySize=auto;html=1;exitX=0.5;exitY=1;exitDx=0;exitDy=0;entryX=0.5;entryY=0;entryDx=0;entryDy=0;fontFamily=Helvetica;fontSize=12;spacing=20;" parent="1" source="lwpGzG6zgtYE_S7jhwBC-84" target="lwpGzG6zgtYE_S7jhwBC-86" edge="1">
          <mxGeometry relative="1" as="geometry" />
        </mxCell>
        <mxCell id="lwpGzG6zgtYE_S7jhwBC-84" value="&lt;span lang=&quot;ES&quot; style=&quot;font-size: 12px;&quot;&gt;El sistema envía un mensaje&lt;br style=&quot;font-size: 12px;&quot;&gt;vía correo electrónico al usuario asignado para notificación. &lt;b style=&quot;font-size: 12px;&quot;&gt;RN09 #5&lt;/b&gt;&lt;/span&gt;" style="rounded=1;whiteSpace=wrap;html=1;fontFamily=Helvetica;fontSize=12;spacing=20;" parent="1" vertex="1">
          <mxGeometry x="2400" y="935" width="240" height="60" as="geometry" />
        </mxCell>
        <mxCell id="lwpGzG6zgtYE_S7jhwBC-89" style="edgeStyle=orthogonalEdgeStyle;rounded=0;orthogonalLoop=1;jettySize=auto;html=1;exitX=0.5;exitY=1;exitDx=0;exitDy=0;entryX=0.5;entryY=0;entryDx=0;entryDy=0;fontFamily=Helvetica;fontSize=12;spacing=20;" parent="1" source="lwpGzG6zgtYE_S7jhwBC-86" target="lwpGzG6zgtYE_S7jhwBC-88" edge="1">
          <mxGeometry relative="1" as="geometry" />
        </mxCell>
        <mxCell id="lwpGzG6zgtYE_S7jhwBC-86" value="&lt;span lang=&quot;ES&quot; style=&quot;font-size: 12px;&quot;&gt;El sistema guarda información&lt;br style=&quot;font-size: 12px;&quot;&gt;en bitácora, con usuario, fecha y hora de la transacción. &lt;b style=&quot;font-size: 12px;&quot;&gt;RN17&lt;/b&gt;&lt;/span&gt;" style="rounded=1;whiteSpace=wrap;html=1;fontFamily=Helvetica;fontSize=12;spacing=20;" parent="1" vertex="1">
          <mxGeometry x="2415" y="1050" width="210" height="60" as="geometry" />
        </mxCell>
        <mxCell id="lwpGzG6zgtYE_S7jhwBC-91" style="edgeStyle=orthogonalEdgeStyle;rounded=0;orthogonalLoop=1;jettySize=auto;html=1;exitX=0.5;exitY=1;exitDx=0;exitDy=0;entryX=0.5;entryY=0;entryDx=0;entryDy=0;fontFamily=Helvetica;fontSize=12;spacing=20;" parent="1" source="lwpGzG6zgtYE_S7jhwBC-88" target="lwpGzG6zgtYE_S7jhwBC-90" edge="1">
          <mxGeometry relative="1" as="geometry" />
        </mxCell>
        <mxCell id="lwpGzG6zgtYE_S7jhwBC-88" value="&lt;span lang=&quot;ES&quot; style=&quot;font-size: 12px;&quot;&gt;El sistema muestra mensaje de&lt;br style=&quot;font-size: 12px;&quot;&gt;éxito&lt;b style=&quot;font-size: 12px;&quot;&gt; AN01 #8&lt;/b&gt;&lt;/span&gt;" style="rounded=1;whiteSpace=wrap;html=1;fontFamily=Helvetica;fontSize=12;spacing=20;" parent="1" vertex="1">
          <mxGeometry x="2460" y="1170" width="120" height="60" as="geometry" />
        </mxCell>
        <mxCell id="lwpGzG6zgtYE_S7jhwBC-90" value="FA08 FIN" style="ellipse;whiteSpace=wrap;html=1;aspect=fixed;fontFamily=Helvetica;fontSize=12;fillColor=#d0cee2;strokeColor=#56517e;strokeWidth=3;fontStyle=1;spacing=20;" parent="1" vertex="1">
          <mxGeometry x="2480" y="1290" width="80" height="80" as="geometry" />
        </mxCell>
        <mxCell id="lwpGzG6zgtYE_S7jhwBC-125" style="edgeStyle=orthogonalEdgeStyle;rounded=0;orthogonalLoop=1;jettySize=auto;html=1;exitX=1;exitY=0.5;exitDx=0;exitDy=0;entryX=0;entryY=0.5;entryDx=0;entryDy=0;" parent="1" source="lwpGzG6zgtYE_S7jhwBC-94" target="lwpGzG6zgtYE_S7jhwBC-49" edge="1">
          <mxGeometry relative="1" as="geometry">
            <Array as="points">
              <mxPoint x="1340" y="1740" />
              <mxPoint x="1340" y="2250" />
            </Array>
          </mxGeometry>
        </mxCell>
        <mxCell id="lwpGzG6zgtYE_S7jhwBC-94" value="FA09" style="ellipse;whiteSpace=wrap;html=1;aspect=fixed;fontFamily=Helvetica;fontSize=12;fillColor=#FFFFCC;strokeColor=#CCCC00;strokeWidth=3;fontStyle=1;spacing=20;" parent="1" vertex="1">
          <mxGeometry x="1240" y="1700" width="80" height="80" as="geometry" />
        </mxCell>
        <mxCell id="lwpGzG6zgtYE_S7jhwBC-100" style="edgeStyle=orthogonalEdgeStyle;rounded=0;orthogonalLoop=1;jettySize=auto;html=1;exitX=0.5;exitY=1;exitDx=0;exitDy=0;entryX=0.5;entryY=0;entryDx=0;entryDy=0;spacing=20;" parent="1" source="lwpGzG6zgtYE_S7jhwBC-96" target="lwpGzG6zgtYE_S7jhwBC-98" edge="1">
          <mxGeometry relative="1" as="geometry" />
        </mxCell>
        <mxCell id="lwpGzG6zgtYE_S7jhwBC-96" value="FA09" style="ellipse;whiteSpace=wrap;html=1;aspect=fixed;fontFamily=Helvetica;fontSize=12;fillColor=#FFFFCC;strokeColor=#CCCC00;strokeWidth=3;fontStyle=1;spacing=20;" parent="1" vertex="1">
          <mxGeometry x="2755" y="1457.5" width="80" height="80" as="geometry" />
        </mxCell>
        <mxCell id="lwpGzG6zgtYE_S7jhwBC-102" style="edgeStyle=orthogonalEdgeStyle;rounded=0;orthogonalLoop=1;jettySize=auto;html=1;exitX=0.5;exitY=1;exitDx=0;exitDy=0;entryX=0.5;entryY=0;entryDx=0;entryDy=0;" parent="1" source="lwpGzG6zgtYE_S7jhwBC-98" target="lwpGzG6zgtYE_S7jhwBC-101" edge="1">
          <mxGeometry relative="1" as="geometry" />
        </mxCell>
        <mxCell id="lwpGzG6zgtYE_S7jhwBC-98" value="&lt;span style=&quot;font-size:10.0pt;font-family:&lt;br/&gt;&amp;quot;Arial&amp;quot;,sans-serif;mso-fareast-font-family:Arial;mso-ansi-language:ES;&lt;br/&gt;mso-fareast-language:ES;mso-bidi-language:AR-SA&quot; lang=&quot;ES&quot;&gt;El sistema muestra mensaje de&lt;br/&gt;alerta&amp;nbsp;&lt;/span&gt;" style="shape=parallelogram;perimeter=parallelogramPerimeter;whiteSpace=wrap;html=1;fixedSize=1;spacing=20;" parent="1" vertex="1">
          <mxGeometry x="2670" y="1587.5" width="250" height="60" as="geometry" />
        </mxCell>
        <mxCell id="lwpGzG6zgtYE_S7jhwBC-105" style="edgeStyle=orthogonalEdgeStyle;rounded=0;orthogonalLoop=1;jettySize=auto;html=1;exitX=1;exitY=0.5;exitDx=0;exitDy=0;entryX=0;entryY=0.5;entryDx=0;entryDy=0;" parent="1" source="lwpGzG6zgtYE_S7jhwBC-101" target="lwpGzG6zgtYE_S7jhwBC-103" edge="1">
          <mxGeometry relative="1" as="geometry" />
        </mxCell>
        <mxCell id="lwpGzG6zgtYE_S7jhwBC-106" style="edgeStyle=orthogonalEdgeStyle;rounded=0;orthogonalLoop=1;jettySize=auto;html=1;exitX=0.5;exitY=1;exitDx=0;exitDy=0;entryX=0.5;entryY=0;entryDx=0;entryDy=0;" parent="1" source="lwpGzG6zgtYE_S7jhwBC-101" target="lwpGzG6zgtYE_S7jhwBC-104" edge="1">
          <mxGeometry relative="1" as="geometry" />
        </mxCell>
        <mxCell id="lwpGzG6zgtYE_S7jhwBC-122" style="edgeStyle=orthogonalEdgeStyle;rounded=0;orthogonalLoop=1;jettySize=auto;html=1;exitX=0;exitY=0.5;exitDx=0;exitDy=0;entryX=1;entryY=0.5;entryDx=0;entryDy=0;" parent="1" source="lwpGzG6zgtYE_S7jhwBC-101" target="lwpGzG6zgtYE_S7jhwBC-109" edge="1">
          <mxGeometry relative="1" as="geometry" />
        </mxCell>
        <mxCell id="lwpGzG6zgtYE_S7jhwBC-101" value="&lt;span style=&quot;font-size:10.0pt;font-family:&lt;br/&gt;&amp;quot;Arial&amp;quot;,sans-serif;mso-fareast-font-family:Arial;mso-ansi-language:ES;&lt;br/&gt;mso-fareast-language:ES;mso-bidi-language:AR-SA&quot; lang=&quot;ES&quot;&gt;“¿Esta seguro que desea&lt;br/&gt;colocar la muestra como “Consumo Total”?”&lt;/span&gt;" style="rhombus;whiteSpace=wrap;html=1;spacing=20;" parent="1" vertex="1">
          <mxGeometry x="2692.5" y="1687.5" width="205" height="130" as="geometry" />
        </mxCell>
        <mxCell id="lwpGzG6zgtYE_S7jhwBC-111" style="edgeStyle=orthogonalEdgeStyle;rounded=0;orthogonalLoop=1;jettySize=auto;html=1;exitX=0.5;exitY=1;exitDx=0;exitDy=0;entryX=0.5;entryY=0;entryDx=0;entryDy=0;" parent="1" source="lwpGzG6zgtYE_S7jhwBC-103" target="lwpGzG6zgtYE_S7jhwBC-110" edge="1">
          <mxGeometry relative="1" as="geometry" />
        </mxCell>
        <mxCell id="lwpGzG6zgtYE_S7jhwBC-103" value="Guardar" style="shape=parallelogram;perimeter=parallelogramPerimeter;whiteSpace=wrap;html=1;fixedSize=1;" parent="1" vertex="1">
          <mxGeometry x="2950" y="1722.5" width="120" height="60" as="geometry" />
        </mxCell>
        <mxCell id="lwpGzG6zgtYE_S7jhwBC-124" style="edgeStyle=orthogonalEdgeStyle;rounded=0;orthogonalLoop=1;jettySize=auto;html=1;exitX=0.5;exitY=1;exitDx=0;exitDy=0;entryX=0.5;entryY=0;entryDx=0;entryDy=0;" parent="1" source="lwpGzG6zgtYE_S7jhwBC-104" target="lwpGzG6zgtYE_S7jhwBC-120" edge="1">
          <mxGeometry relative="1" as="geometry" />
        </mxCell>
        <mxCell id="lwpGzG6zgtYE_S7jhwBC-104" value="Guardar" style="shape=parallelogram;perimeter=parallelogramPerimeter;whiteSpace=wrap;html=1;fixedSize=1;" parent="1" vertex="1">
          <mxGeometry x="2735" y="1857.5" width="120" height="60" as="geometry" />
        </mxCell>
        <mxCell id="lwpGzG6zgtYE_S7jhwBC-107" value="Si" style="text;html=1;align=center;verticalAlign=middle;whiteSpace=wrap;rounded=0;" parent="1" vertex="1">
          <mxGeometry x="2880" y="1722.5" width="60" height="30" as="geometry" />
        </mxCell>
        <mxCell id="lwpGzG6zgtYE_S7jhwBC-108" value="No" style="text;html=1;align=center;verticalAlign=middle;whiteSpace=wrap;rounded=0;" parent="1" vertex="1">
          <mxGeometry x="2783" y="1811" width="60" height="30" as="geometry" />
        </mxCell>
        <mxCell id="lwpGzG6zgtYE_S7jhwBC-123" style="edgeStyle=orthogonalEdgeStyle;rounded=0;orthogonalLoop=1;jettySize=auto;html=1;exitX=0.5;exitY=1;exitDx=0;exitDy=0;entryX=0;entryY=0.5;entryDx=0;entryDy=0;" parent="1" source="lwpGzG6zgtYE_S7jhwBC-109" target="lwpGzG6zgtYE_S7jhwBC-120" edge="1">
          <mxGeometry relative="1" as="geometry" />
        </mxCell>
        <mxCell id="lwpGzG6zgtYE_S7jhwBC-109" value="Cancelar" style="shape=parallelogram;perimeter=parallelogramPerimeter;whiteSpace=wrap;html=1;fixedSize=1;" parent="1" vertex="1">
          <mxGeometry x="2520" y="1722.5" width="120" height="60" as="geometry" />
        </mxCell>
        <mxCell id="lwpGzG6zgtYE_S7jhwBC-113" style="edgeStyle=orthogonalEdgeStyle;rounded=0;orthogonalLoop=1;jettySize=auto;html=1;exitX=0.5;exitY=1;exitDx=0;exitDy=0;entryX=0.5;entryY=0;entryDx=0;entryDy=0;" parent="1" source="lwpGzG6zgtYE_S7jhwBC-110" target="lwpGzG6zgtYE_S7jhwBC-112" edge="1">
          <mxGeometry relative="1" as="geometry" />
        </mxCell>
        <mxCell id="lwpGzG6zgtYE_S7jhwBC-110" value="&lt;span style=&quot;font-size:10.0pt;font-family:&lt;br/&gt;&amp;quot;Arial&amp;quot;,sans-serif;mso-fareast-font-family:Arial;mso-ansi-language:ES;&lt;br/&gt;mso-fareast-language:ES;mso-bidi-language:AR-SA&quot; lang=&quot;ES&quot;&gt;El sistema asigna el estado a&lt;br/&gt;la muestra “CT-Consumo Total”. &lt;b&gt;RN11&lt;/b&gt;&lt;/span&gt;" style="rounded=1;whiteSpace=wrap;html=1;spacing=20;" parent="1" vertex="1">
          <mxGeometry x="2900" y="1857.5" width="220" height="60" as="geometry" />
        </mxCell>
        <mxCell id="lwpGzG6zgtYE_S7jhwBC-115" style="edgeStyle=orthogonalEdgeStyle;rounded=0;orthogonalLoop=1;jettySize=auto;html=1;exitX=0.5;exitY=1;exitDx=0;exitDy=0;entryX=0.5;entryY=0;entryDx=0;entryDy=0;" parent="1" source="lwpGzG6zgtYE_S7jhwBC-112" target="lwpGzG6zgtYE_S7jhwBC-114" edge="1">
          <mxGeometry relative="1" as="geometry" />
        </mxCell>
        <mxCell id="lwpGzG6zgtYE_S7jhwBC-112" value="&lt;span style=&quot;font-size:10.0pt;font-family:&lt;br/&gt;&amp;quot;Arial&amp;quot;,sans-serif;mso-fareast-font-family:Arial;mso-ansi-language:ES;&lt;br/&gt;mso-fareast-language:ES;mso-bidi-language:AR-SA&quot; lang=&quot;ES&quot;&gt;El sistema asigna estado a la solicitud “Finalizada”. &lt;b&gt;RN11&lt;/b&gt;&lt;/span&gt;" style="rounded=1;whiteSpace=wrap;html=1;spacing=20;" parent="1" vertex="1">
          <mxGeometry x="2910" y="1955" width="200" height="60" as="geometry" />
        </mxCell>
        <mxCell id="lwpGzG6zgtYE_S7jhwBC-117" style="edgeStyle=orthogonalEdgeStyle;rounded=0;orthogonalLoop=1;jettySize=auto;html=1;exitX=0.5;exitY=1;exitDx=0;exitDy=0;entryX=0.5;entryY=0;entryDx=0;entryDy=0;" parent="1" source="lwpGzG6zgtYE_S7jhwBC-114" target="lwpGzG6zgtYE_S7jhwBC-116" edge="1">
          <mxGeometry relative="1" as="geometry" />
        </mxCell>
        <mxCell id="lwpGzG6zgtYE_S7jhwBC-114" value="&lt;span style=&quot;font-size:10.0pt;font-family:&lt;br/&gt;&amp;quot;Arial&amp;quot;,sans-serif;mso-fareast-font-family:Arial;mso-ansi-language:ES;&lt;br/&gt;mso-fareast-language:ES;mso-bidi-language:AR-SA&quot; lang=&quot;ES&quot;&gt;El sistema envía un mensaje&lt;br/&gt;vía correo electrónico al usuario para notificación “Correo Electrónico del&lt;br/&gt;Solicitante”. &lt;b&gt;RN09 #6&lt;/b&gt;&lt;/span&gt;" style="rounded=1;whiteSpace=wrap;html=1;spacing=20;" parent="1" vertex="1">
          <mxGeometry x="2875" y="2057.5" width="270" height="80" as="geometry" />
        </mxCell>
        <mxCell id="lwpGzG6zgtYE_S7jhwBC-119" style="edgeStyle=orthogonalEdgeStyle;rounded=0;orthogonalLoop=1;jettySize=auto;html=1;exitX=0.5;exitY=1;exitDx=0;exitDy=0;entryX=0.5;entryY=0;entryDx=0;entryDy=0;" parent="1" source="lwpGzG6zgtYE_S7jhwBC-116" target="lwpGzG6zgtYE_S7jhwBC-118" edge="1">
          <mxGeometry relative="1" as="geometry" />
        </mxCell>
        <mxCell id="lwpGzG6zgtYE_S7jhwBC-116" value="&lt;span style=&quot;font-size:10.0pt;font-family:&lt;br/&gt;&amp;quot;Arial&amp;quot;,sans-serif;mso-fareast-font-family:Arial;mso-ansi-language:ES;&lt;br/&gt;mso-fareast-language:ES;mso-bidi-language:AR-SA&quot; lang=&quot;ES&quot;&gt;El sistema guarda información&lt;br/&gt;en bitácora, con usuario, fecha y hora de la transacción. &lt;b&gt;RN17&amp;nbsp;&lt;/b&gt;&lt;/span&gt;" style="rounded=1;whiteSpace=wrap;html=1;spacing=20;" parent="1" vertex="1">
          <mxGeometry x="2885" y="2177.5" width="250" height="60" as="geometry" />
        </mxCell>
        <mxCell id="lwpGzG6zgtYE_S7jhwBC-121" style="edgeStyle=orthogonalEdgeStyle;rounded=0;orthogonalLoop=1;jettySize=auto;html=1;exitX=0.5;exitY=1;exitDx=0;exitDy=0;entryX=1;entryY=0.5;entryDx=0;entryDy=0;" parent="1" source="lwpGzG6zgtYE_S7jhwBC-118" target="lwpGzG6zgtYE_S7jhwBC-120" edge="1">
          <mxGeometry relative="1" as="geometry" />
        </mxCell>
        <mxCell id="lwpGzG6zgtYE_S7jhwBC-118" value="&lt;span style=&quot;font-size:10.0pt;font-family:&lt;br/&gt;&amp;quot;Arial&amp;quot;,sans-serif;mso-fareast-font-family:Arial;mso-ansi-language:ES;&lt;br/&gt;mso-fareast-language:ES;mso-bidi-language:AR-SA&quot; lang=&quot;ES&quot;&gt;El sistema muestra mensaje de&lt;br/&gt;éxito&lt;b&gt; AN01 #9&lt;/b&gt;&lt;/span&gt;" style="rounded=1;whiteSpace=wrap;html=1;" parent="1" vertex="1">
          <mxGeometry x="2905" y="2277.5" width="210" height="60" as="geometry" />
        </mxCell>
        <mxCell id="lwpGzG6zgtYE_S7jhwBC-120" value="FA09 FIN" style="ellipse;whiteSpace=wrap;html=1;aspect=fixed;fontFamily=Helvetica;fontSize=12;fillColor=#FFFFCC;strokeColor=#CCCC00;strokeWidth=3;fontStyle=1;spacing=20;" parent="1" vertex="1">
          <mxGeometry x="2755" y="2317.5" width="80" height="80" as="geometry" />
        </mxCell>
        <mxCell id="ZBJVuQkuqlIhL208MIH7-3" style="edgeStyle=orthogonalEdgeStyle;rounded=0;orthogonalLoop=1;jettySize=auto;html=1;exitX=0.5;exitY=1;exitDx=0;exitDy=0;entryX=0.5;entryY=0;entryDx=0;entryDy=0;" edge="1" parent="1" source="ZBJVuQkuqlIhL208MIH7-1" target="ZBJVuQkuqlIhL208MIH7-2">
          <mxGeometry relative="1" as="geometry" />
        </mxCell>
        <mxCell id="ZBJVuQkuqlIhL208MIH7-1" value="FA12" style="ellipse;whiteSpace=wrap;html=1;aspect=fixed;fillColor=#FFCCE6;strokeWidth=3;fontFamily=Helvetica;fontSize=12;strokeColor=#FF3399;fontStyle=1;spacing=20;" vertex="1" parent="1">
          <mxGeometry x="3620" y="90" width="80" height="80" as="geometry" />
        </mxCell>
        <mxCell id="ZBJVuQkuqlIhL208MIH7-5" style="edgeStyle=orthogonalEdgeStyle;rounded=0;orthogonalLoop=1;jettySize=auto;html=1;exitX=0.5;exitY=1;exitDx=0;exitDy=0;entryX=0.5;entryY=0;entryDx=0;entryDy=0;" edge="1" parent="1" source="ZBJVuQkuqlIhL208MIH7-2" target="ZBJVuQkuqlIhL208MIH7-4">
          <mxGeometry relative="1" as="geometry" />
        </mxCell>
        <mxCell id="ZBJVuQkuqlIhL208MIH7-2" value="&lt;span style=&quot;font-size:10.0pt;font-family:&lt;br/&gt;&amp;quot;Arial&amp;quot;,sans-serif;mso-fareast-font-family:Arial;mso-ansi-language:ES;&lt;br/&gt;mso-fareast-language:ES;mso-bidi-language:AR-SA&quot; lang=&quot;ES&quot;&gt;El sistema mostrara todos los&lt;br/&gt;datos de la solicitud. &lt;b&gt;RN02&lt;/b&gt;&lt;/span&gt;" style="shape=parallelogram;perimeter=parallelogramPerimeter;whiteSpace=wrap;html=1;fixedSize=1;" vertex="1" parent="1">
          <mxGeometry x="3550" y="230" width="220" height="60" as="geometry" />
        </mxCell>
        <mxCell id="ZBJVuQkuqlIhL208MIH7-11" style="edgeStyle=orthogonalEdgeStyle;rounded=0;orthogonalLoop=1;jettySize=auto;html=1;exitX=0.5;exitY=1;exitDx=0;exitDy=0;entryX=0.5;entryY=0;entryDx=0;entryDy=0;" edge="1" parent="1" source="ZBJVuQkuqlIhL208MIH7-4" target="ZBJVuQkuqlIhL208MIH7-8">
          <mxGeometry relative="1" as="geometry" />
        </mxCell>
        <mxCell id="ZBJVuQkuqlIhL208MIH7-12" style="edgeStyle=orthogonalEdgeStyle;rounded=0;orthogonalLoop=1;jettySize=auto;html=1;exitX=0.5;exitY=1;exitDx=0;exitDy=0;entryX=0.5;entryY=0;entryDx=0;entryDy=0;" edge="1" parent="1" source="ZBJVuQkuqlIhL208MIH7-4" target="ZBJVuQkuqlIhL208MIH7-9">
          <mxGeometry relative="1" as="geometry" />
        </mxCell>
        <mxCell id="ZBJVuQkuqlIhL208MIH7-13" style="edgeStyle=orthogonalEdgeStyle;rounded=0;orthogonalLoop=1;jettySize=auto;html=1;exitX=0.5;exitY=1;exitDx=0;exitDy=0;entryX=0.5;entryY=0;entryDx=0;entryDy=0;" edge="1" parent="1" source="ZBJVuQkuqlIhL208MIH7-4" target="ZBJVuQkuqlIhL208MIH7-10">
          <mxGeometry relative="1" as="geometry" />
        </mxCell>
        <mxCell id="ZBJVuQkuqlIhL208MIH7-14" style="edgeStyle=orthogonalEdgeStyle;rounded=0;orthogonalLoop=1;jettySize=auto;html=1;exitX=0.5;exitY=1;exitDx=0;exitDy=0;entryX=0.5;entryY=0;entryDx=0;entryDy=0;" edge="1" parent="1" source="ZBJVuQkuqlIhL208MIH7-4" target="ZBJVuQkuqlIhL208MIH7-7">
          <mxGeometry relative="1" as="geometry" />
        </mxCell>
        <mxCell id="ZBJVuQkuqlIhL208MIH7-15" style="edgeStyle=orthogonalEdgeStyle;rounded=0;orthogonalLoop=1;jettySize=auto;html=1;exitX=0.5;exitY=1;exitDx=0;exitDy=0;entryX=0.5;entryY=0;entryDx=0;entryDy=0;" edge="1" parent="1" source="ZBJVuQkuqlIhL208MIH7-4" target="ZBJVuQkuqlIhL208MIH7-6">
          <mxGeometry relative="1" as="geometry" />
        </mxCell>
        <mxCell id="ZBJVuQkuqlIhL208MIH7-4" value="&lt;span style=&quot;font-size:10.0pt;font-family:&lt;br/&gt;&amp;quot;Arial&amp;quot;,sans-serif;mso-fareast-font-family:Arial;mso-ansi-language:ES;&lt;br/&gt;mso-fareast-language:ES;mso-bidi-language:AR-SA&quot; lang=&quot;ES&quot;&gt;El sistema habilitara los&lt;br/&gt;siguientes campos: &lt;b&gt;RN10&lt;/b&gt;&lt;/span&gt;" style="rounded=1;whiteSpace=wrap;html=1;" vertex="1" parent="1">
          <mxGeometry x="3555" y="350" width="210" height="60" as="geometry" />
        </mxCell>
        <mxCell id="ZBJVuQkuqlIhL208MIH7-17" style="edgeStyle=orthogonalEdgeStyle;rounded=0;orthogonalLoop=1;jettySize=auto;html=1;exitX=0.5;exitY=1;exitDx=0;exitDy=0;entryX=0.5;entryY=0;entryDx=0;entryDy=0;" edge="1" parent="1" source="ZBJVuQkuqlIhL208MIH7-6" target="ZBJVuQkuqlIhL208MIH7-16">
          <mxGeometry relative="1" as="geometry" />
        </mxCell>
        <mxCell id="ZBJVuQkuqlIhL208MIH7-6" value="&lt;span style=&quot;font-size:10.0pt;font-family:&lt;br/&gt;&amp;quot;Arial&amp;quot;,sans-serif;mso-fareast-font-family:Arial;mso-ansi-language:ES;&lt;br/&gt;mso-fareast-language:ES;mso-bidi-language:AR-SA&quot; lang=&quot;ES&quot;&gt;Certificado de ensayo&lt;/span&gt;" style="rhombus;whiteSpace=wrap;html=1;spacing=20;" vertex="1" parent="1">
          <mxGeometry x="3291" y="462.5" width="120" height="80" as="geometry" />
        </mxCell>
        <mxCell id="ZBJVuQkuqlIhL208MIH7-18" style="edgeStyle=orthogonalEdgeStyle;rounded=0;orthogonalLoop=1;jettySize=auto;html=1;exitX=0.5;exitY=1;exitDx=0;exitDy=0;entryX=0.5;entryY=0;entryDx=0;entryDy=0;" edge="1" parent="1" source="ZBJVuQkuqlIhL208MIH7-7" target="ZBJVuQkuqlIhL208MIH7-16">
          <mxGeometry relative="1" as="geometry" />
        </mxCell>
        <mxCell id="ZBJVuQkuqlIhL208MIH7-7" value="&lt;span style=&quot;font-size:10.0pt;font-family:&lt;br/&gt;&amp;quot;Arial&amp;quot;,sans-serif;mso-fareast-font-family:Arial;mso-ansi-language:ES;&lt;br/&gt;mso-fareast-language:ES;mso-bidi-language:AR-SA&quot; lang=&quot;ES&quot;&gt;Opinión técnica merceológica&lt;/span&gt;" style="rhombus;whiteSpace=wrap;html=1;spacing=20;" vertex="1" parent="1">
          <mxGeometry x="3451" y="462.5" width="120" height="80" as="geometry" />
        </mxCell>
        <mxCell id="ZBJVuQkuqlIhL208MIH7-21" style="edgeStyle=orthogonalEdgeStyle;rounded=0;orthogonalLoop=1;jettySize=auto;html=1;exitX=0.5;exitY=1;exitDx=0;exitDy=0;entryX=0.5;entryY=0;entryDx=0;entryDy=0;" edge="1" parent="1" source="ZBJVuQkuqlIhL208MIH7-8" target="ZBJVuQkuqlIhL208MIH7-16">
          <mxGeometry relative="1" as="geometry" />
        </mxCell>
        <mxCell id="ZBJVuQkuqlIhL208MIH7-8" value="&lt;span style=&quot;font-size:10.0pt;font-family:&lt;br/&gt;&amp;quot;Arial&amp;quot;,sans-serif;mso-fareast-font-family:Arial;mso-ansi-language:ES;&lt;br/&gt;mso-fareast-language:ES;mso-bidi-language:AR-SA&quot; lang=&quot;ES&quot;&gt;Informe&lt;/span&gt;" style="rhombus;whiteSpace=wrap;html=1;spacing=20;" vertex="1" parent="1">
          <mxGeometry x="3601" y="462.5" width="120" height="80" as="geometry" />
        </mxCell>
        <mxCell id="ZBJVuQkuqlIhL208MIH7-20" style="edgeStyle=orthogonalEdgeStyle;rounded=0;orthogonalLoop=1;jettySize=auto;html=1;exitX=0.5;exitY=1;exitDx=0;exitDy=0;entryX=0.5;entryY=0;entryDx=0;entryDy=0;" edge="1" parent="1" source="ZBJVuQkuqlIhL208MIH7-9" target="ZBJVuQkuqlIhL208MIH7-16">
          <mxGeometry relative="1" as="geometry" />
        </mxCell>
        <mxCell id="ZBJVuQkuqlIhL208MIH7-9" value="&lt;span style=&quot;font-size:10.0pt;font-family:&lt;br/&gt;&amp;quot;Arial&amp;quot;,sans-serif;mso-fareast-font-family:Arial;mso-ansi-language:ES;&lt;br/&gt;mso-fareast-language:ES;mso-bidi-language:AR-SA&quot; lang=&quot;ES&quot;&gt;Providencia&lt;/span&gt;" style="rhombus;whiteSpace=wrap;html=1;spacing=20;" vertex="1" parent="1">
          <mxGeometry x="3761" y="462.5" width="120" height="80" as="geometry" />
        </mxCell>
        <mxCell id="ZBJVuQkuqlIhL208MIH7-48" style="edgeStyle=orthogonalEdgeStyle;rounded=0;orthogonalLoop=1;jettySize=auto;html=1;exitX=0.5;exitY=1;exitDx=0;exitDy=0;entryX=0.5;entryY=0;entryDx=0;entryDy=0;" edge="1" parent="1" source="ZBJVuQkuqlIhL208MIH7-10" target="ZBJVuQkuqlIhL208MIH7-16">
          <mxGeometry relative="1" as="geometry" />
        </mxCell>
        <mxCell id="ZBJVuQkuqlIhL208MIH7-10" value="&lt;span style=&quot;font-size:10.0pt;font-family:&lt;br/&gt;&amp;quot;Arial&amp;quot;,sans-serif;mso-fareast-font-family:Arial;mso-ansi-language:ES;&lt;br/&gt;mso-fareast-language:ES;mso-bidi-language:AR-SA&quot; lang=&quot;ES&quot;&gt;Documentos Análisis Externo&lt;/span&gt;" style="rhombus;whiteSpace=wrap;html=1;spacing=20;" vertex="1" parent="1">
          <mxGeometry x="3921" y="462.5" width="120" height="80" as="geometry" />
        </mxCell>
        <mxCell id="ZBJVuQkuqlIhL208MIH7-26" style="edgeStyle=orthogonalEdgeStyle;rounded=0;orthogonalLoop=1;jettySize=auto;html=1;exitX=0;exitY=0.5;exitDx=0;exitDy=0;entryX=0.5;entryY=0;entryDx=0;entryDy=0;" edge="1" parent="1" source="ZBJVuQkuqlIhL208MIH7-16" target="ZBJVuQkuqlIhL208MIH7-25">
          <mxGeometry relative="1" as="geometry" />
        </mxCell>
        <mxCell id="ZBJVuQkuqlIhL208MIH7-34" style="edgeStyle=orthogonalEdgeStyle;rounded=0;orthogonalLoop=1;jettySize=auto;html=1;exitX=1;exitY=0.5;exitDx=0;exitDy=0;entryX=0;entryY=0.5;entryDx=0;entryDy=0;" edge="1" parent="1" source="ZBJVuQkuqlIhL208MIH7-16" target="ZBJVuQkuqlIhL208MIH7-33">
          <mxGeometry relative="1" as="geometry" />
        </mxCell>
        <mxCell id="ZBJVuQkuqlIhL208MIH7-16" value="&lt;span style=&quot;font-size:10.0pt;font-family:&lt;br/&gt;&amp;quot;Arial&amp;quot;,sans-serif;mso-fareast-font-family:Arial;mso-ansi-language:ES;&lt;br/&gt;mso-fareast-language:ES;mso-bidi-language:AR-SA&quot; lang=&quot;ES&quot;&gt;1 o más documentos fueron&lt;br/&gt;cargados correctamente&lt;/span&gt;" style="rhombus;whiteSpace=wrap;html=1;" vertex="1" parent="1">
          <mxGeometry x="3506" y="620" width="310" height="80" as="geometry" />
        </mxCell>
        <mxCell id="ZBJVuQkuqlIhL208MIH7-23" value="Si" style="text;html=1;align=center;verticalAlign=middle;whiteSpace=wrap;rounded=0;" vertex="1" parent="1">
          <mxGeometry x="3470" y="620" width="60" height="30" as="geometry" />
        </mxCell>
        <mxCell id="ZBJVuQkuqlIhL208MIH7-24" value="No" style="text;html=1;align=center;verticalAlign=middle;whiteSpace=wrap;rounded=0;" vertex="1" parent="1">
          <mxGeometry x="3780" y="620" width="60" height="30" as="geometry" />
        </mxCell>
        <mxCell id="ZBJVuQkuqlIhL208MIH7-30" style="edgeStyle=orthogonalEdgeStyle;rounded=0;orthogonalLoop=1;jettySize=auto;html=1;exitX=0.5;exitY=1;exitDx=0;exitDy=0;entryX=0.5;entryY=0;entryDx=0;entryDy=0;" edge="1" parent="1" source="ZBJVuQkuqlIhL208MIH7-25" target="ZBJVuQkuqlIhL208MIH7-27">
          <mxGeometry relative="1" as="geometry" />
        </mxCell>
        <mxCell id="ZBJVuQkuqlIhL208MIH7-31" style="edgeStyle=orthogonalEdgeStyle;rounded=0;orthogonalLoop=1;jettySize=auto;html=1;exitX=0.5;exitY=1;exitDx=0;exitDy=0;entryX=0.5;entryY=0;entryDx=0;entryDy=0;" edge="1" parent="1" source="ZBJVuQkuqlIhL208MIH7-25" target="ZBJVuQkuqlIhL208MIH7-28">
          <mxGeometry relative="1" as="geometry" />
        </mxCell>
        <mxCell id="ZBJVuQkuqlIhL208MIH7-32" style="edgeStyle=orthogonalEdgeStyle;rounded=0;orthogonalLoop=1;jettySize=auto;html=1;exitX=0.5;exitY=1;exitDx=0;exitDy=0;entryX=0.5;entryY=0;entryDx=0;entryDy=0;" edge="1" parent="1" source="ZBJVuQkuqlIhL208MIH7-25" target="ZBJVuQkuqlIhL208MIH7-29">
          <mxGeometry relative="1" as="geometry" />
        </mxCell>
        <mxCell id="ZBJVuQkuqlIhL208MIH7-25" value="&lt;span style=&quot;font-size:10.0pt;font-family:&lt;br/&gt;&amp;quot;Arial&amp;quot;,sans-serif;mso-fareast-font-family:Arial;mso-ansi-language:ES;&lt;br/&gt;mso-fareast-language:ES;mso-bidi-language:AR-SA&quot; lang=&quot;ES&quot;&gt;El sistema habilita las opciones&lt;/span&gt;" style="rounded=1;whiteSpace=wrap;html=1;" vertex="1" parent="1">
          <mxGeometry x="3360" y="700" width="120" height="60" as="geometry" />
        </mxCell>
        <mxCell id="ZBJVuQkuqlIhL208MIH7-55" style="edgeStyle=orthogonalEdgeStyle;rounded=0;orthogonalLoop=1;jettySize=auto;html=1;exitX=0.5;exitY=1;exitDx=0;exitDy=0;entryX=0.5;entryY=0;entryDx=0;entryDy=0;" edge="1" parent="1" source="ZBJVuQkuqlIhL208MIH7-27" target="ZBJVuQkuqlIhL208MIH7-54">
          <mxGeometry relative="1" as="geometry" />
        </mxCell>
        <mxCell id="ZBJVuQkuqlIhL208MIH7-27" value="&lt;span style=&quot;font-size:10.0pt;font-family:&lt;br/&gt;&amp;quot;Arial&amp;quot;,sans-serif;mso-fareast-font-family:Arial;mso-ansi-language:ES;&lt;br/&gt;mso-fareast-language:ES;mso-bidi-language:AR-SA&quot; lang=&quot;ES&quot;&gt;Trasladar Almacenamiento Porción&lt;br/&gt;de Muestra&lt;/span&gt;" style="rhombus;whiteSpace=wrap;html=1;spacing=20;" vertex="1" parent="1">
          <mxGeometry x="3174.5" y="810" width="149" height="120" as="geometry" />
        </mxCell>
        <mxCell id="ZBJVuQkuqlIhL208MIH7-76" style="edgeStyle=orthogonalEdgeStyle;rounded=0;orthogonalLoop=1;jettySize=auto;html=1;exitX=0.5;exitY=1;exitDx=0;exitDy=0;entryX=0;entryY=0.5;entryDx=0;entryDy=0;" edge="1" parent="1" source="ZBJVuQkuqlIhL208MIH7-28" target="ZBJVuQkuqlIhL208MIH7-38">
          <mxGeometry relative="1" as="geometry" />
        </mxCell>
        <mxCell id="ZBJVuQkuqlIhL208MIH7-28" value="&lt;span style=&quot;font-size:10.0pt;font-family:&lt;br/&gt;&amp;quot;Arial&amp;quot;,sans-serif;mso-fareast-font-family:Arial;mso-ansi-language:ES;&lt;br/&gt;mso-fareast-language:ES;mso-bidi-language:AR-SA&quot; lang=&quot;ES&quot;&gt;Análisis Externo&lt;/span&gt;&lt;div&gt;&lt;span style=&quot;font-size:10.0pt;font-family:&lt;br/&gt;&amp;quot;Arial&amp;quot;,sans-serif;mso-fareast-font-family:Arial;mso-ansi-language:ES;&lt;br/&gt;mso-fareast-language:ES;mso-bidi-language:AR-SA&quot; lang=&quot;ES&quot;&gt;Porción de Muestra&lt;/span&gt;&lt;/div&gt;" style="rhombus;whiteSpace=wrap;html=1;spacing=20;" vertex="1" parent="1">
          <mxGeometry x="3344.5" y="810" width="149" height="120" as="geometry" />
        </mxCell>
        <mxCell id="ZBJVuQkuqlIhL208MIH7-37" style="edgeStyle=orthogonalEdgeStyle;rounded=0;orthogonalLoop=1;jettySize=auto;html=1;exitX=1;exitY=0.5;exitDx=0;exitDy=0;entryX=0;entryY=0.5;entryDx=0;entryDy=0;" edge="1" parent="1" source="ZBJVuQkuqlIhL208MIH7-29" target="ZBJVuQkuqlIhL208MIH7-36">
          <mxGeometry relative="1" as="geometry" />
        </mxCell>
        <mxCell id="ZBJVuQkuqlIhL208MIH7-29" value="&lt;span style=&quot;font-size:10.0pt;font-family:&lt;br/&gt;&amp;quot;Arial&amp;quot;,sans-serif;mso-fareast-font-family:Arial;mso-ansi-language:ES;&lt;br/&gt;mso-fareast-language:ES;mso-bidi-language:AR-SA&quot; lang=&quot;ES&quot;&gt;Cancelar&lt;/span&gt;" style="rhombus;whiteSpace=wrap;html=1;" vertex="1" parent="1">
          <mxGeometry x="3516.5" y="810" width="149" height="120" as="geometry" />
        </mxCell>
        <mxCell id="ZBJVuQkuqlIhL208MIH7-35" style="edgeStyle=orthogonalEdgeStyle;rounded=0;orthogonalLoop=1;jettySize=auto;html=1;exitX=1;exitY=0.5;exitDx=0;exitDy=0;entryX=1;entryY=0.5;entryDx=0;entryDy=0;" edge="1" parent="1" source="ZBJVuQkuqlIhL208MIH7-33" target="ZBJVuQkuqlIhL208MIH7-4">
          <mxGeometry relative="1" as="geometry">
            <Array as="points">
              <mxPoint x="4160" y="661" />
              <mxPoint x="4160" y="380" />
            </Array>
          </mxGeometry>
        </mxCell>
        <mxCell id="ZBJVuQkuqlIhL208MIH7-33" value="&lt;span style=&quot;font-size: 10pt; font-family: Arial, sans-serif;&quot; lang=&quot;ES-GT&quot;&gt;El sistema despliega el mensaje Error:&amp;nbsp;&lt;/span&gt;&lt;div&gt;&lt;span style=&quot;font-size: 10pt; font-family: Arial, sans-serif;&quot; lang=&quot;ES-GT&quot;&gt;“Ver AN02, No. 3 o 4 o 5”&lt;/span&gt;&lt;/div&gt;" style="shape=parallelogram;perimeter=parallelogramPerimeter;whiteSpace=wrap;html=1;fixedSize=1;spacing=20;" vertex="1" parent="1">
          <mxGeometry x="3900" y="623" width="220" height="75" as="geometry" />
        </mxCell>
        <mxCell id="ZBJVuQkuqlIhL208MIH7-36" value="FA12 FIN" style="ellipse;whiteSpace=wrap;html=1;aspect=fixed;fillColor=#FFCCE6;strokeWidth=3;fontFamily=Helvetica;fontSize=12;strokeColor=#FF3399;fontStyle=1;spacing=20;" vertex="1" parent="1">
          <mxGeometry x="3790" y="830" width="80" height="80" as="geometry" />
        </mxCell>
        <mxCell id="ZBJVuQkuqlIhL208MIH7-77" style="edgeStyle=orthogonalEdgeStyle;rounded=0;orthogonalLoop=1;jettySize=auto;html=1;exitX=1;exitY=0.5;exitDx=0;exitDy=0;entryX=0.5;entryY=1;entryDx=0;entryDy=0;" edge="1" parent="1" source="ZBJVuQkuqlIhL208MIH7-38" target="ZBJVuQkuqlIhL208MIH7-36">
          <mxGeometry relative="1" as="geometry" />
        </mxCell>
        <mxCell id="ZBJVuQkuqlIhL208MIH7-38" value="FA13" style="ellipse;whiteSpace=wrap;html=1;aspect=fixed;fillColor=#CCFFCC;strokeColor=#00FF00;strokeWidth=3;fontStyle=1" vertex="1" parent="1">
          <mxGeometry x="3551" y="980" width="80" height="80" as="geometry" />
        </mxCell>
        <mxCell id="ZBJVuQkuqlIhL208MIH7-47" style="edgeStyle=orthogonalEdgeStyle;rounded=0;orthogonalLoop=1;jettySize=auto;html=1;exitX=0;exitY=0.5;exitDx=0;exitDy=0;entryX=0.5;entryY=0;entryDx=0;entryDy=0;" edge="1" parent="1" source="ZBJVuQkuqlIhL208MIH7-40" target="ZBJVuQkuqlIhL208MIH7-45">
          <mxGeometry relative="1" as="geometry" />
        </mxCell>
        <mxCell id="ZBJVuQkuqlIhL208MIH7-58" style="edgeStyle=orthogonalEdgeStyle;rounded=0;orthogonalLoop=1;jettySize=auto;html=1;exitX=1;exitY=0.5;exitDx=0;exitDy=0;entryX=0.5;entryY=1;entryDx=0;entryDy=0;" edge="1" parent="1" source="ZBJVuQkuqlIhL208MIH7-40" target="ZBJVuQkuqlIhL208MIH7-33">
          <mxGeometry relative="1" as="geometry" />
        </mxCell>
        <mxCell id="ZBJVuQkuqlIhL208MIH7-40" value="&lt;span style=&quot;font-size:10.0pt;font-family:&lt;br/&gt;&amp;quot;Arial&amp;quot;,sans-serif;mso-fareast-font-family:Arial;mso-ansi-language:ES;&lt;br/&gt;mso-fareast-language:ES;mso-bidi-language:AR-SA&quot; lang=&quot;ES&quot;&gt;al menos 1&amp;nbsp;&lt;/span&gt;&lt;span style=&quot;font-size: 10pt; background-color: initial;&quot;&gt;documento fue &lt;/span&gt;&lt;span style=&quot;font-size: 10pt; background-color: initial;&quot;&gt;cargado&lt;/span&gt;" style="rhombus;whiteSpace=wrap;html=1;spacing=20;" vertex="1" parent="1">
          <mxGeometry x="3173.5" y="1110" width="150" height="85" as="geometry" />
        </mxCell>
        <mxCell id="ZBJVuQkuqlIhL208MIH7-42" value="Si" style="text;html=1;align=center;verticalAlign=middle;whiteSpace=wrap;rounded=0;" vertex="1" parent="1">
          <mxGeometry x="3129.5" y="1120" width="60" height="30" as="geometry" />
        </mxCell>
        <mxCell id="ZBJVuQkuqlIhL208MIH7-43" value="No" style="text;html=1;align=center;verticalAlign=middle;whiteSpace=wrap;rounded=0;" vertex="1" parent="1">
          <mxGeometry x="3309.5" y="1095" width="60" height="30" as="geometry" />
        </mxCell>
        <mxCell id="ZBJVuQkuqlIhL208MIH7-60" style="edgeStyle=orthogonalEdgeStyle;rounded=0;orthogonalLoop=1;jettySize=auto;html=1;exitX=0.5;exitY=1;exitDx=0;exitDy=0;entryX=0.5;entryY=0;entryDx=0;entryDy=0;" edge="1" parent="1" source="ZBJVuQkuqlIhL208MIH7-45" target="ZBJVuQkuqlIhL208MIH7-59">
          <mxGeometry relative="1" as="geometry" />
        </mxCell>
        <mxCell id="ZBJVuQkuqlIhL208MIH7-45" value="&lt;span style=&quot;font-size:10.0pt;font-family:&lt;br/&gt;&amp;quot;Arial&amp;quot;,sans-serif;mso-fareast-font-family:Arial;mso-ansi-language:ES;&lt;br/&gt;mso-fareast-language:ES;mso-bidi-language:AR-SA&quot; lang=&quot;ES&quot;&gt;El sistema muestra un listado&lt;br/&gt;de los usuarios activos con nombre de actor Almacenamiento de Muestras. &lt;b&gt;RN16&lt;/b&gt;&lt;/span&gt;" style="shape=parallelogram;perimeter=parallelogramPerimeter;whiteSpace=wrap;html=1;fixedSize=1;" vertex="1" parent="1">
          <mxGeometry x="2924.5" y="1255" width="315" height="60" as="geometry" />
        </mxCell>
        <mxCell id="ZBJVuQkuqlIhL208MIH7-56" style="edgeStyle=orthogonalEdgeStyle;rounded=0;orthogonalLoop=1;jettySize=auto;html=1;exitX=0.5;exitY=1;exitDx=0;exitDy=0;entryX=0.5;entryY=0;entryDx=0;entryDy=0;" edge="1" parent="1" source="ZBJVuQkuqlIhL208MIH7-54" target="ZBJVuQkuqlIhL208MIH7-40">
          <mxGeometry relative="1" as="geometry" />
        </mxCell>
        <mxCell id="ZBJVuQkuqlIhL208MIH7-54" value="&lt;span style=&quot;font-size:10.0pt;font-family:&lt;br/&gt;&amp;quot;Arial&amp;quot;,sans-serif;mso-fareast-font-family:Arial;mso-ansi-language:ES;&lt;br/&gt;mso-fareast-language:ES;mso-bidi-language:AR-SA&quot; lang=&quot;ES&quot;&gt;El usuario selecciona la&lt;br/&gt;opción Trasladar Almacenamiento Porción de Muestra.&lt;/span&gt;" style="shape=parallelogram;perimeter=parallelogramPerimeter;whiteSpace=wrap;html=1;fixedSize=1;spacing=20;" vertex="1" parent="1">
          <mxGeometry x="3128.5" y="990" width="241" height="60" as="geometry" />
        </mxCell>
        <mxCell id="ZBJVuQkuqlIhL208MIH7-68" style="edgeStyle=orthogonalEdgeStyle;rounded=0;orthogonalLoop=1;jettySize=auto;html=1;exitX=1;exitY=0.5;exitDx=0;exitDy=0;entryX=0;entryY=0.5;entryDx=0;entryDy=0;" edge="1" parent="1" source="ZBJVuQkuqlIhL208MIH7-59" target="ZBJVuQkuqlIhL208MIH7-61">
          <mxGeometry relative="1" as="geometry">
            <Array as="points">
              <mxPoint x="3270" y="1393" />
              <mxPoint x="3270" y="1285" />
            </Array>
          </mxGeometry>
        </mxCell>
        <mxCell id="ZBJVuQkuqlIhL208MIH7-59" value="&lt;span style=&quot;font-size:10.0pt;font-family:&lt;br/&gt;&amp;quot;Arial&amp;quot;,sans-serif;mso-fareast-font-family:Arial;mso-ansi-language:ES;&lt;br/&gt;mso-fareast-language:ES;mso-bidi-language:AR-SA&quot; lang=&quot;ES&quot;&gt;El usuario selecciona a quien&lt;br/&gt;desea asignarlo&lt;/span&gt;" style="shape=parallelogram;perimeter=parallelogramPerimeter;whiteSpace=wrap;html=1;fixedSize=1;" vertex="1" parent="1">
          <mxGeometry x="2959.5" y="1362.5" width="245" height="60" as="geometry" />
        </mxCell>
        <mxCell id="ZBJVuQkuqlIhL208MIH7-69" style="edgeStyle=orthogonalEdgeStyle;rounded=0;orthogonalLoop=1;jettySize=auto;html=1;exitX=0.75;exitY=1;exitDx=0;exitDy=0;entryX=0.5;entryY=0;entryDx=0;entryDy=0;" edge="1" parent="1" source="ZBJVuQkuqlIhL208MIH7-61" target="ZBJVuQkuqlIhL208MIH7-63">
          <mxGeometry relative="1" as="geometry" />
        </mxCell>
        <mxCell id="ZBJVuQkuqlIhL208MIH7-61" value="&lt;span style=&quot;font-size:10.0pt;font-family:&lt;br/&gt;&amp;quot;Arial&amp;quot;,sans-serif;mso-fareast-font-family:Arial;mso-ansi-language:ES;&lt;br/&gt;mso-fareast-language:ES;mso-bidi-language:AR-SA&quot; lang=&quot;ES&quot;&gt;El sistema asigna el estado a&lt;br/&gt;la porción de muestra “Traslado almacenamiento”. &lt;b&gt;RN11&lt;/b&gt;&lt;/span&gt;" style="shape=parallelogram;perimeter=parallelogramPerimeter;whiteSpace=wrap;html=1;fixedSize=1;" vertex="1" parent="1">
          <mxGeometry x="3300" y="1255" width="290.5" height="60" as="geometry" />
        </mxCell>
        <mxCell id="ZBJVuQkuqlIhL208MIH7-74" style="edgeStyle=orthogonalEdgeStyle;rounded=0;orthogonalLoop=1;jettySize=auto;html=1;exitX=0.75;exitY=0;exitDx=0;exitDy=0;entryX=0.25;entryY=1;entryDx=0;entryDy=0;" edge="1" parent="1" source="ZBJVuQkuqlIhL208MIH7-63" target="ZBJVuQkuqlIhL208MIH7-65">
          <mxGeometry relative="1" as="geometry" />
        </mxCell>
        <mxCell id="ZBJVuQkuqlIhL208MIH7-63" value="&lt;span style=&quot;font-size:10.0pt;font-family:&lt;br/&gt;&amp;quot;Arial&amp;quot;,sans-serif;mso-fareast-font-family:Arial;mso-ansi-language:ES;&lt;br/&gt;mso-fareast-language:ES;mso-bidi-language:AR-SA&quot; lang=&quot;ES&quot;&gt;El sistema traslada la solicitud a la bandeja del usuario y asigna&amp;nbsp;&lt;/span&gt;&lt;div&gt;&lt;span style=&quot;font-size:10.0pt;font-family:&lt;br/&gt;&amp;quot;Arial&amp;quot;,sans-serif;mso-fareast-font-family:Arial;mso-ansi-language:ES;&lt;br/&gt;mso-fareast-language:ES;mso-bidi-language:AR-SA&quot; lang=&quot;ES&quot;&gt;estado a la solicitud “Asignada Almacenamiento de Muestra”. &lt;b&gt;RN11&lt;/b&gt;&lt;/span&gt;&lt;/div&gt;" style="shape=parallelogram;perimeter=parallelogramPerimeter;whiteSpace=wrap;html=1;fixedSize=1;" vertex="1" parent="1">
          <mxGeometry x="3297" y="1362.5" width="440" height="60" as="geometry" />
        </mxCell>
        <mxCell id="ZBJVuQkuqlIhL208MIH7-71" style="edgeStyle=orthogonalEdgeStyle;rounded=0;orthogonalLoop=1;jettySize=auto;html=1;exitX=0.75;exitY=1;exitDx=0;exitDy=0;entryX=0.5;entryY=0;entryDx=0;entryDy=0;" edge="1" parent="1" source="ZBJVuQkuqlIhL208MIH7-65" target="ZBJVuQkuqlIhL208MIH7-67">
          <mxGeometry relative="1" as="geometry" />
        </mxCell>
        <mxCell id="ZBJVuQkuqlIhL208MIH7-65" value="&lt;span style=&quot;font-size:10.0pt;font-family:&lt;br/&gt;&amp;quot;Arial&amp;quot;,sans-serif;mso-fareast-font-family:Arial;mso-ansi-language:ES;&lt;br/&gt;mso-fareast-language:ES;mso-bidi-language:AR-SA&quot; lang=&quot;ES&quot;&gt;El sistema envía un mensaje&lt;br/&gt;vía correo electrónico al usuario asignado para notificación. &lt;b&gt;RN09 #5&lt;/b&gt;&lt;/span&gt;" style="shape=parallelogram;perimeter=parallelogramPerimeter;whiteSpace=wrap;html=1;fixedSize=1;" vertex="1" parent="1">
          <mxGeometry x="3620" y="1255" width="320" height="60" as="geometry" />
        </mxCell>
        <mxCell id="ZBJVuQkuqlIhL208MIH7-73" style="edgeStyle=orthogonalEdgeStyle;rounded=0;orthogonalLoop=1;jettySize=auto;html=1;exitX=0.75;exitY=0;exitDx=0;exitDy=0;entryX=0.5;entryY=1;entryDx=0;entryDy=0;" edge="1" parent="1" source="ZBJVuQkuqlIhL208MIH7-67" target="ZBJVuQkuqlIhL208MIH7-72">
          <mxGeometry relative="1" as="geometry" />
        </mxCell>
        <mxCell id="ZBJVuQkuqlIhL208MIH7-67" value="&lt;span style=&quot;font-size:10.0pt;font-family:&lt;br/&gt;&amp;quot;Arial&amp;quot;,sans-serif;mso-fareast-font-family:Arial;mso-ansi-language:ES;&lt;br/&gt;mso-fareast-language:ES;mso-bidi-language:AR-SA&quot; lang=&quot;ES&quot;&gt;El sistema guarda información&lt;br/&gt;en bitácora, con usuario, fecha y hora de la transacción. &lt;b&gt;RN17&lt;/b&gt;&lt;/span&gt;" style="shape=parallelogram;perimeter=parallelogramPerimeter;whiteSpace=wrap;html=1;fixedSize=1;" vertex="1" parent="1">
          <mxGeometry x="3780" y="1362.5" width="320" height="60" as="geometry" />
        </mxCell>
        <mxCell id="ZBJVuQkuqlIhL208MIH7-75" style="edgeStyle=orthogonalEdgeStyle;rounded=0;orthogonalLoop=1;jettySize=auto;html=1;exitX=0.5;exitY=0;exitDx=0;exitDy=0;entryX=1;entryY=0.5;entryDx=0;entryDy=0;" edge="1" parent="1" source="ZBJVuQkuqlIhL208MIH7-72" target="ZBJVuQkuqlIhL208MIH7-36">
          <mxGeometry relative="1" as="geometry" />
        </mxCell>
        <mxCell id="ZBJVuQkuqlIhL208MIH7-72" value="&lt;span style=&quot;font-size:10.0pt;font-family:&lt;br/&gt;&amp;quot;Arial&amp;quot;,sans-serif;mso-fareast-font-family:Arial;mso-ansi-language:ES;&lt;br/&gt;mso-fareast-language:ES;mso-bidi-language:AR-SA&quot; lang=&quot;ES&quot;&gt;El sistema muestra mensaje de&lt;br/&gt;éxito &lt;b&gt;AN01 #8&lt;/b&gt;&lt;/span&gt;" style="shape=parallelogram;perimeter=parallelogramPerimeter;whiteSpace=wrap;html=1;fixedSize=1;" vertex="1" parent="1">
          <mxGeometry x="3965" y="1255" width="280" height="60" as="geometry" />
        </mxCell>
        <mxCell id="ZBJVuQkuqlIhL208MIH7-83" style="edgeStyle=orthogonalEdgeStyle;rounded=0;orthogonalLoop=1;jettySize=auto;html=1;exitX=0.5;exitY=1;exitDx=0;exitDy=0;" edge="1" parent="1" source="ZBJVuQkuqlIhL208MIH7-78" target="ZBJVuQkuqlIhL208MIH7-81">
          <mxGeometry relative="1" as="geometry" />
        </mxCell>
        <mxCell id="ZBJVuQkuqlIhL208MIH7-78" value="FA13" style="ellipse;whiteSpace=wrap;html=1;aspect=fixed;fillColor=#CCFFCC;strokeColor=#00FF00;strokeWidth=3;fontStyle=1" vertex="1" parent="1">
          <mxGeometry x="3495" y="1477.5" width="80" height="80" as="geometry" />
        </mxCell>
        <mxCell id="ZBJVuQkuqlIhL208MIH7-90" style="edgeStyle=orthogonalEdgeStyle;rounded=0;orthogonalLoop=1;jettySize=auto;html=1;exitX=0;exitY=0.5;exitDx=0;exitDy=0;entryX=1;entryY=0.5;entryDx=0;entryDy=0;" edge="1" parent="1" source="ZBJVuQkuqlIhL208MIH7-79" target="ZBJVuQkuqlIhL208MIH7-89">
          <mxGeometry relative="1" as="geometry" />
        </mxCell>
        <mxCell id="ZBJVuQkuqlIhL208MIH7-91" style="edgeStyle=orthogonalEdgeStyle;rounded=0;orthogonalLoop=1;jettySize=auto;html=1;exitX=0.5;exitY=1;exitDx=0;exitDy=0;entryX=0.5;entryY=0;entryDx=0;entryDy=0;" edge="1" parent="1" source="ZBJVuQkuqlIhL208MIH7-79" target="ZBJVuQkuqlIhL208MIH7-87">
          <mxGeometry relative="1" as="geometry" />
        </mxCell>
        <mxCell id="ZBJVuQkuqlIhL208MIH7-92" style="edgeStyle=orthogonalEdgeStyle;rounded=0;orthogonalLoop=1;jettySize=auto;html=1;exitX=1;exitY=0.5;exitDx=0;exitDy=0;entryX=0;entryY=0.5;entryDx=0;entryDy=0;" edge="1" parent="1" source="ZBJVuQkuqlIhL208MIH7-79" target="ZBJVuQkuqlIhL208MIH7-88">
          <mxGeometry relative="1" as="geometry" />
        </mxCell>
        <mxCell id="ZBJVuQkuqlIhL208MIH7-79" value="&lt;span style=&quot;font-size:10.0pt;font-family:&lt;br/&gt;&amp;quot;Arial&amp;quot;,sans-serif;mso-fareast-font-family:Arial;mso-ansi-language:ES;&lt;br/&gt;mso-fareast-language:ES;mso-bidi-language:AR-SA&quot; lang=&quot;ES&quot;&gt;¿Esta seguro que desea enviar&lt;br/&gt;la porción de muestra a “Análisis Externo”?”&lt;/span&gt;" style="rhombus;whiteSpace=wrap;html=1;spacing=20;" vertex="1" parent="1">
          <mxGeometry x="3340" y="1700" width="390" height="100" as="geometry" />
        </mxCell>
        <mxCell id="ZBJVuQkuqlIhL208MIH7-84" style="edgeStyle=orthogonalEdgeStyle;rounded=0;orthogonalLoop=1;jettySize=auto;html=1;exitX=0.5;exitY=1;exitDx=0;exitDy=0;entryX=0.5;entryY=0;entryDx=0;entryDy=0;" edge="1" parent="1" source="ZBJVuQkuqlIhL208MIH7-81" target="ZBJVuQkuqlIhL208MIH7-79">
          <mxGeometry relative="1" as="geometry" />
        </mxCell>
        <mxCell id="ZBJVuQkuqlIhL208MIH7-81" value="&lt;span style=&quot;font-size:10.0pt;font-family:&lt;br/&gt;&amp;quot;Arial&amp;quot;,sans-serif;mso-fareast-font-family:Arial;mso-ansi-language:ES;&lt;br/&gt;mso-fareast-language:ES;mso-bidi-language:AR-SA&quot; lang=&quot;ES&quot;&gt;El usuario selecciona la&lt;br&gt;opción Analisis Externo Porción de Muestra&lt;/span&gt;" style="shape=parallelogram;perimeter=parallelogramPerimeter;whiteSpace=wrap;html=1;fixedSize=1;spacing=20;" vertex="1" parent="1">
          <mxGeometry x="3415" y="1600" width="241" height="60" as="geometry" />
        </mxCell>
        <mxCell id="ZBJVuQkuqlIhL208MIH7-85" value="Si" style="text;html=1;align=center;verticalAlign=middle;whiteSpace=wrap;rounded=0;" vertex="1" parent="1">
          <mxGeometry x="3705" y="1707.5" width="60" height="30" as="geometry" />
        </mxCell>
        <mxCell id="ZBJVuQkuqlIhL208MIH7-86" value="No" style="text;html=1;align=center;verticalAlign=middle;whiteSpace=wrap;rounded=0;" vertex="1" parent="1">
          <mxGeometry x="3555" y="1797.5" width="60" height="30" as="geometry" />
        </mxCell>
        <mxCell id="ZBJVuQkuqlIhL208MIH7-103" style="edgeStyle=orthogonalEdgeStyle;rounded=0;orthogonalLoop=1;jettySize=auto;html=1;exitX=0.5;exitY=1;exitDx=0;exitDy=0;entryX=0.5;entryY=0;entryDx=0;entryDy=0;" edge="1" parent="1" source="ZBJVuQkuqlIhL208MIH7-87" target="ZBJVuQkuqlIhL208MIH7-100">
          <mxGeometry relative="1" as="geometry" />
        </mxCell>
        <mxCell id="ZBJVuQkuqlIhL208MIH7-87" value="Guardar" style="shape=parallelogram;perimeter=parallelogramPerimeter;whiteSpace=wrap;html=1;fixedSize=1;" vertex="1" parent="1">
          <mxGeometry x="3475" y="1877.5" width="120" height="60" as="geometry" />
        </mxCell>
        <mxCell id="ZBJVuQkuqlIhL208MIH7-95" style="edgeStyle=orthogonalEdgeStyle;rounded=0;orthogonalLoop=1;jettySize=auto;html=1;exitX=1;exitY=0.5;exitDx=0;exitDy=0;entryX=0;entryY=0.5;entryDx=0;entryDy=0;" edge="1" parent="1" source="ZBJVuQkuqlIhL208MIH7-88" target="ZBJVuQkuqlIhL208MIH7-94">
          <mxGeometry relative="1" as="geometry" />
        </mxCell>
        <mxCell id="ZBJVuQkuqlIhL208MIH7-88" value="Guardar" style="shape=parallelogram;perimeter=parallelogramPerimeter;whiteSpace=wrap;html=1;fixedSize=1;" vertex="1" parent="1">
          <mxGeometry x="3790" y="1720" width="120" height="60" as="geometry" />
        </mxCell>
        <mxCell id="ZBJVuQkuqlIhL208MIH7-107" style="edgeStyle=orthogonalEdgeStyle;rounded=0;orthogonalLoop=1;jettySize=auto;html=1;exitX=0.5;exitY=1;exitDx=0;exitDy=0;entryX=0.5;entryY=0;entryDx=0;entryDy=0;" edge="1" parent="1" source="ZBJVuQkuqlIhL208MIH7-89" target="ZBJVuQkuqlIhL208MIH7-106">
          <mxGeometry relative="1" as="geometry" />
        </mxCell>
        <mxCell id="ZBJVuQkuqlIhL208MIH7-89" value="Cancelar" style="shape=parallelogram;perimeter=parallelogramPerimeter;whiteSpace=wrap;html=1;fixedSize=1;" vertex="1" parent="1">
          <mxGeometry x="3175" y="1720" width="120" height="60" as="geometry" />
        </mxCell>
        <mxCell id="ZBJVuQkuqlIhL208MIH7-97" style="edgeStyle=orthogonalEdgeStyle;rounded=0;orthogonalLoop=1;jettySize=auto;html=1;exitX=0.5;exitY=1;exitDx=0;exitDy=0;entryX=0.5;entryY=0;entryDx=0;entryDy=0;" edge="1" parent="1" source="ZBJVuQkuqlIhL208MIH7-94" target="ZBJVuQkuqlIhL208MIH7-96">
          <mxGeometry relative="1" as="geometry" />
        </mxCell>
        <mxCell id="ZBJVuQkuqlIhL208MIH7-94" value="&lt;span style=&quot;font-size:10.0pt;font-family:&lt;br/&gt;&amp;quot;Arial&amp;quot;,sans-serif;mso-fareast-font-family:Arial;mso-ansi-language:ES;&lt;br/&gt;mso-fareast-language:ES;mso-bidi-language:AR-SA&quot; lang=&quot;ES&quot;&gt;El sistema asigna el estado a&lt;br/&gt;la porción de muestra “En análisis externo”. &lt;b&gt;RN11&lt;/b&gt;&lt;/span&gt;" style="rounded=1;whiteSpace=wrap;html=1;" vertex="1" parent="1">
          <mxGeometry x="3965" y="1720" width="240" height="60" as="geometry" />
        </mxCell>
        <mxCell id="ZBJVuQkuqlIhL208MIH7-99" style="edgeStyle=orthogonalEdgeStyle;rounded=0;orthogonalLoop=1;jettySize=auto;html=1;exitX=0.5;exitY=1;exitDx=0;exitDy=0;entryX=0.5;entryY=0;entryDx=0;entryDy=0;" edge="1" parent="1" source="ZBJVuQkuqlIhL208MIH7-96" target="ZBJVuQkuqlIhL208MIH7-98">
          <mxGeometry relative="1" as="geometry" />
        </mxCell>
        <mxCell id="ZBJVuQkuqlIhL208MIH7-96" value="&lt;span style=&quot;font-size:10.0pt;font-family:&lt;br/&gt;&amp;quot;Arial&amp;quot;,sans-serif;mso-fareast-font-family:Arial;mso-ansi-language:ES;&lt;br/&gt;mso-fareast-language:ES;mso-bidi-language:AR-SA&quot; lang=&quot;ES&quot;&gt;El sistema guarda información&lt;br/&gt;en bitácora, con usuario, fecha y hora de la transacción. &lt;b&gt;RN17&amp;nbsp;&lt;/b&gt;&lt;/span&gt;" style="rounded=1;whiteSpace=wrap;html=1;" vertex="1" parent="1">
          <mxGeometry x="3975" y="1827.5" width="220" height="60" as="geometry" />
        </mxCell>
        <mxCell id="ZBJVuQkuqlIhL208MIH7-102" style="edgeStyle=orthogonalEdgeStyle;rounded=0;orthogonalLoop=1;jettySize=auto;html=1;exitX=0.5;exitY=1;exitDx=0;exitDy=0;entryX=1;entryY=0.5;entryDx=0;entryDy=0;" edge="1" parent="1" source="ZBJVuQkuqlIhL208MIH7-98" target="ZBJVuQkuqlIhL208MIH7-100">
          <mxGeometry relative="1" as="geometry" />
        </mxCell>
        <mxCell id="ZBJVuQkuqlIhL208MIH7-98" value="&lt;span style=&quot;font-size:10.0pt;font-family:&lt;br/&gt;&amp;quot;Arial&amp;quot;,sans-serif;mso-fareast-font-family:Arial;mso-ansi-language:ES;&lt;br/&gt;mso-fareast-language:ES;mso-bidi-language:AR-SA&quot; lang=&quot;ES&quot;&gt;El sistema muestra mensaje de&lt;br/&gt;éxito&lt;b&gt; AN01 #10&lt;/b&gt;&lt;/span&gt;" style="shape=parallelogram;perimeter=parallelogramPerimeter;whiteSpace=wrap;html=1;fixedSize=1;" vertex="1" parent="1">
          <mxGeometry x="3960" y="1937.5" width="250" height="60" as="geometry" />
        </mxCell>
        <mxCell id="ZBJVuQkuqlIhL208MIH7-100" value="FA13&lt;br&gt;FIN" style="ellipse;whiteSpace=wrap;html=1;aspect=fixed;fillColor=#CCFFCC;strokeColor=#00FF00;strokeWidth=3;fontStyle=1" vertex="1" parent="1">
          <mxGeometry x="3495" y="2057.5" width="80" height="80" as="geometry" />
        </mxCell>
        <mxCell id="ZBJVuQkuqlIhL208MIH7-108" style="edgeStyle=orthogonalEdgeStyle;rounded=0;orthogonalLoop=1;jettySize=auto;html=1;exitX=0.5;exitY=1;exitDx=0;exitDy=0;entryX=0;entryY=0.5;entryDx=0;entryDy=0;" edge="1" parent="1" source="ZBJVuQkuqlIhL208MIH7-106" target="ZBJVuQkuqlIhL208MIH7-100">
          <mxGeometry relative="1" as="geometry" />
        </mxCell>
        <mxCell id="ZBJVuQkuqlIhL208MIH7-106" value="&lt;span style=&quot;font-size:10.0pt;font-family:&lt;br/&gt;&amp;quot;Arial&amp;quot;,sans-serif;mso-fareast-font-family:Arial;mso-ansi-language:ES;&lt;br/&gt;mso-fareast-language:ES;mso-bidi-language:AR-SA&quot; lang=&quot;ES&quot;&gt;El sistema no guarda ningún&lt;br/&gt;cambio&lt;/span&gt;" style="rounded=1;whiteSpace=wrap;html=1;" vertex="1" parent="1">
          <mxGeometry x="3175" y="1877.5" width="120" height="60" as="geometry" />
        </mxCell>
        <mxCell id="ZBJVuQkuqlIhL208MIH7-112" style="edgeStyle=orthogonalEdgeStyle;rounded=0;orthogonalLoop=1;jettySize=auto;html=1;exitX=1;exitY=0.5;exitDx=0;exitDy=0;" edge="1" parent="1" source="ZBJVuQkuqlIhL208MIH7-109">
          <mxGeometry relative="1" as="geometry">
            <mxPoint x="1340" y="1850" as="targetPoint" />
          </mxGeometry>
        </mxCell>
        <mxCell id="ZBJVuQkuqlIhL208MIH7-109" value="FA10" style="ellipse;whiteSpace=wrap;html=1;aspect=fixed;fontStyle=1;fillColor=#f8cecc;strokeColor=#b85450;strokeWidth=3;" vertex="1" parent="1">
          <mxGeometry x="1235" y="1810" width="80" height="80" as="geometry" />
        </mxCell>
        <mxCell id="ZBJVuQkuqlIhL208MIH7-114" style="edgeStyle=orthogonalEdgeStyle;rounded=0;orthogonalLoop=1;jettySize=auto;html=1;exitX=0.5;exitY=1;exitDx=0;exitDy=0;entryX=0.5;entryY=0;entryDx=0;entryDy=0;" edge="1" parent="1" source="ZBJVuQkuqlIhL208MIH7-111" target="ZBJVuQkuqlIhL208MIH7-113">
          <mxGeometry relative="1" as="geometry" />
        </mxCell>
        <mxCell id="ZBJVuQkuqlIhL208MIH7-111" value="FA10" style="ellipse;whiteSpace=wrap;html=1;aspect=fixed;fontStyle=1;fillColor=#f8cecc;strokeColor=#b85450;strokeWidth=3;" vertex="1" parent="1">
          <mxGeometry x="380" y="1292.5" width="80" height="80" as="geometry" />
        </mxCell>
        <mxCell id="ZBJVuQkuqlIhL208MIH7-116" style="edgeStyle=orthogonalEdgeStyle;rounded=0;orthogonalLoop=1;jettySize=auto;html=1;exitX=0.5;exitY=1;exitDx=0;exitDy=0;entryX=0.5;entryY=0;entryDx=0;entryDy=0;" edge="1" parent="1" source="ZBJVuQkuqlIhL208MIH7-113" target="ZBJVuQkuqlIhL208MIH7-115">
          <mxGeometry relative="1" as="geometry" />
        </mxCell>
        <mxCell id="ZBJVuQkuqlIhL208MIH7-113" value="&lt;span style=&quot;font-size:10.0pt;font-family:&lt;br/&gt;&amp;quot;Arial&amp;quot;,sans-serif;mso-fareast-font-family:Arial;mso-ansi-language:ES;&lt;br/&gt;mso-fareast-language:ES;mso-bidi-language:AR-SA&quot; lang=&quot;ES&quot;&gt;El sistema muestra&amp;nbsp;&lt;/span&gt;&lt;div&gt;&lt;span style=&quot;font-size:10.0pt;font-family:&lt;br/&gt;&amp;quot;Arial&amp;quot;,sans-serif;mso-fareast-font-family:Arial;mso-ansi-language:ES;&lt;br/&gt;mso-fareast-language:ES;mso-bidi-language:AR-SA&quot; lang=&quot;ES&quot;&gt;mensaje de alerta&lt;/span&gt;&lt;/div&gt;" style="shape=parallelogram;perimeter=parallelogramPerimeter;whiteSpace=wrap;html=1;fixedSize=1;" vertex="1" parent="1">
          <mxGeometry x="327.5" y="1427.5" width="185" height="60" as="geometry" />
        </mxCell>
        <mxCell id="ZBJVuQkuqlIhL208MIH7-120" style="edgeStyle=orthogonalEdgeStyle;rounded=0;orthogonalLoop=1;jettySize=auto;html=1;exitX=1;exitY=0.5;exitDx=0;exitDy=0;entryX=0;entryY=0.5;entryDx=0;entryDy=0;" edge="1" parent="1" source="ZBJVuQkuqlIhL208MIH7-115" target="ZBJVuQkuqlIhL208MIH7-119">
          <mxGeometry relative="1" as="geometry" />
        </mxCell>
        <mxCell id="ZBJVuQkuqlIhL208MIH7-122" style="edgeStyle=orthogonalEdgeStyle;rounded=0;orthogonalLoop=1;jettySize=auto;html=1;exitX=0.5;exitY=1;exitDx=0;exitDy=0;entryX=0.5;entryY=0;entryDx=0;entryDy=0;" edge="1" parent="1" source="ZBJVuQkuqlIhL208MIH7-115" target="ZBJVuQkuqlIhL208MIH7-121">
          <mxGeometry relative="1" as="geometry" />
        </mxCell>
        <mxCell id="ZBJVuQkuqlIhL208MIH7-124" style="edgeStyle=orthogonalEdgeStyle;rounded=0;orthogonalLoop=1;jettySize=auto;html=1;exitX=0;exitY=0.5;exitDx=0;exitDy=0;entryX=1;entryY=0.5;entryDx=0;entryDy=0;" edge="1" parent="1" source="ZBJVuQkuqlIhL208MIH7-115" target="ZBJVuQkuqlIhL208MIH7-123">
          <mxGeometry relative="1" as="geometry" />
        </mxCell>
        <mxCell id="ZBJVuQkuqlIhL208MIH7-115" value="&lt;span style=&quot;font-size:10.0pt;font-family:&lt;br/&gt;&amp;quot;Arial&amp;quot;,sans-serif;mso-fareast-font-family:Arial;mso-ansi-language:ES;&lt;br/&gt;mso-fareast-language:ES;mso-bidi-language:AR-SA&quot; lang=&quot;ES&quot;&gt;“¿Esta seguro que desea enviar&lt;br/&gt;la muestra a “Análisis Externo”?”&lt;/span&gt;" style="rhombus;whiteSpace=wrap;html=1;spacing=20;" vertex="1" parent="1">
          <mxGeometry x="265" y="1546.25" width="310" height="82.5" as="geometry" />
        </mxCell>
        <mxCell id="ZBJVuQkuqlIhL208MIH7-117" value="Si" style="text;html=1;align=center;verticalAlign=middle;whiteSpace=wrap;rounded=0;" vertex="1" parent="1">
          <mxGeometry x="540" y="1557.5" width="60" height="30" as="geometry" />
        </mxCell>
        <mxCell id="ZBJVuQkuqlIhL208MIH7-118" value="No" style="text;html=1;align=center;verticalAlign=middle;whiteSpace=wrap;rounded=0;" vertex="1" parent="1">
          <mxGeometry x="365" y="1620" width="60" height="30" as="geometry" />
        </mxCell>
        <mxCell id="ZBJVuQkuqlIhL208MIH7-126" style="edgeStyle=orthogonalEdgeStyle;rounded=0;orthogonalLoop=1;jettySize=auto;html=1;exitX=0.5;exitY=1;exitDx=0;exitDy=0;entryX=0.5;entryY=0;entryDx=0;entryDy=0;" edge="1" parent="1" source="ZBJVuQkuqlIhL208MIH7-119" target="ZBJVuQkuqlIhL208MIH7-125">
          <mxGeometry relative="1" as="geometry" />
        </mxCell>
        <mxCell id="ZBJVuQkuqlIhL208MIH7-119" value="Guardar" style="shape=parallelogram;perimeter=parallelogramPerimeter;whiteSpace=wrap;html=1;fixedSize=1;" vertex="1" parent="1">
          <mxGeometry x="640" y="1557.5" width="120" height="60" as="geometry" />
        </mxCell>
        <mxCell id="ZBJVuQkuqlIhL208MIH7-136" style="edgeStyle=orthogonalEdgeStyle;rounded=0;orthogonalLoop=1;jettySize=auto;html=1;exitX=0.5;exitY=1;exitDx=0;exitDy=0;entryX=0.5;entryY=0;entryDx=0;entryDy=0;" edge="1" parent="1" source="ZBJVuQkuqlIhL208MIH7-121" target="ZBJVuQkuqlIhL208MIH7-134">
          <mxGeometry relative="1" as="geometry" />
        </mxCell>
        <mxCell id="ZBJVuQkuqlIhL208MIH7-121" value="Guardar" style="shape=parallelogram;perimeter=parallelogramPerimeter;whiteSpace=wrap;html=1;fixedSize=1;" vertex="1" parent="1">
          <mxGeometry x="360" y="1687.5" width="120" height="60" as="geometry" />
        </mxCell>
        <mxCell id="ZBJVuQkuqlIhL208MIH7-133" style="edgeStyle=orthogonalEdgeStyle;rounded=0;orthogonalLoop=1;jettySize=auto;html=1;exitX=0.5;exitY=1;exitDx=0;exitDy=0;entryX=0.5;entryY=0;entryDx=0;entryDy=0;" edge="1" parent="1" source="ZBJVuQkuqlIhL208MIH7-123" target="ZBJVuQkuqlIhL208MIH7-132">
          <mxGeometry relative="1" as="geometry" />
        </mxCell>
        <mxCell id="ZBJVuQkuqlIhL208MIH7-123" value="Cancelar" style="shape=parallelogram;perimeter=parallelogramPerimeter;whiteSpace=wrap;html=1;fixedSize=1;" vertex="1" parent="1">
          <mxGeometry x="70" y="1557.5" width="120" height="60" as="geometry" />
        </mxCell>
        <mxCell id="ZBJVuQkuqlIhL208MIH7-128" style="edgeStyle=orthogonalEdgeStyle;rounded=0;orthogonalLoop=1;jettySize=auto;html=1;exitX=0.5;exitY=1;exitDx=0;exitDy=0;entryX=0.5;entryY=0;entryDx=0;entryDy=0;" edge="1" parent="1" source="ZBJVuQkuqlIhL208MIH7-125" target="ZBJVuQkuqlIhL208MIH7-127">
          <mxGeometry relative="1" as="geometry" />
        </mxCell>
        <mxCell id="ZBJVuQkuqlIhL208MIH7-125" value="&lt;span style=&quot;font-size:10.0pt;font-family:&lt;br/&gt;&amp;quot;Arial&amp;quot;,sans-serif;mso-fareast-font-family:Arial;mso-ansi-language:ES;&lt;br/&gt;mso-fareast-language:ES;mso-bidi-language:AR-SA&quot; lang=&quot;ES&quot;&gt;El sistema asigna el estado a&lt;br/&gt;la muestra “AE-Análisis Externo”. &lt;b&gt;RN11&lt;/b&gt;&lt;/span&gt;" style="rounded=1;whiteSpace=wrap;html=1;" vertex="1" parent="1">
          <mxGeometry x="590" y="1677.5" width="220" height="60" as="geometry" />
        </mxCell>
        <mxCell id="ZBJVuQkuqlIhL208MIH7-131" style="edgeStyle=orthogonalEdgeStyle;rounded=0;orthogonalLoop=1;jettySize=auto;html=1;exitX=0.5;exitY=1;exitDx=0;exitDy=0;entryX=0.5;entryY=0;entryDx=0;entryDy=0;" edge="1" parent="1" source="ZBJVuQkuqlIhL208MIH7-127" target="ZBJVuQkuqlIhL208MIH7-130">
          <mxGeometry relative="1" as="geometry" />
        </mxCell>
        <mxCell id="ZBJVuQkuqlIhL208MIH7-127" value="&lt;span style=&quot;font-size:10.0pt;font-family:&lt;br/&gt;&amp;quot;Arial&amp;quot;,sans-serif;mso-fareast-font-family:Arial;mso-ansi-language:ES;&lt;br/&gt;mso-fareast-language:ES;mso-bidi-language:AR-SA&quot; lang=&quot;ES&quot;&gt;El sistema guarda información&lt;br/&gt;en bitácora, con usuario, fecha y hora de la transacción. &lt;b&gt;RN17&lt;/b&gt;&lt;/span&gt;" style="rounded=1;whiteSpace=wrap;html=1;" vertex="1" parent="1">
          <mxGeometry x="575" y="1796" width="250" height="60" as="geometry" />
        </mxCell>
        <mxCell id="ZBJVuQkuqlIhL208MIH7-137" style="edgeStyle=orthogonalEdgeStyle;rounded=0;orthogonalLoop=1;jettySize=auto;html=1;exitX=0;exitY=0.5;exitDx=0;exitDy=0;entryX=1;entryY=0.5;entryDx=0;entryDy=0;" edge="1" parent="1" source="ZBJVuQkuqlIhL208MIH7-130" target="ZBJVuQkuqlIhL208MIH7-134">
          <mxGeometry relative="1" as="geometry" />
        </mxCell>
        <mxCell id="ZBJVuQkuqlIhL208MIH7-130" value="&lt;span style=&quot;font-size:10.0pt;font-family:&lt;br/&gt;&amp;quot;Arial&amp;quot;,sans-serif;mso-fareast-font-family:Arial;mso-ansi-language:ES;&lt;br/&gt;mso-fareast-language:ES;mso-bidi-language:AR-SA&quot; lang=&quot;ES&quot;&gt;El sistema muestra mensaje de&lt;br/&gt;éxito&lt;b&gt; AN01 #10&lt;/b&gt;&lt;/span&gt;" style="shape=parallelogram;perimeter=parallelogramPerimeter;whiteSpace=wrap;html=1;fixedSize=1;" vertex="1" parent="1">
          <mxGeometry x="575" y="1917.5" width="250" height="60" as="geometry" />
        </mxCell>
        <mxCell id="ZBJVuQkuqlIhL208MIH7-135" style="edgeStyle=orthogonalEdgeStyle;rounded=0;orthogonalLoop=1;jettySize=auto;html=1;exitX=0.5;exitY=1;exitDx=0;exitDy=0;entryX=0;entryY=0.5;entryDx=0;entryDy=0;" edge="1" parent="1" source="ZBJVuQkuqlIhL208MIH7-132" target="ZBJVuQkuqlIhL208MIH7-134">
          <mxGeometry relative="1" as="geometry" />
        </mxCell>
        <mxCell id="ZBJVuQkuqlIhL208MIH7-132" value="&lt;span style=&quot;font-size:10.0pt;font-family:&lt;br/&gt;&amp;quot;Arial&amp;quot;,sans-serif;mso-fareast-font-family:Arial;mso-ansi-language:ES;&lt;br/&gt;mso-fareast-language:ES;mso-bidi-language:AR-SA&quot; lang=&quot;ES&quot;&gt;El sistema no guarda ningún&lt;br/&gt;cambio&lt;/span&gt;" style="rounded=1;whiteSpace=wrap;html=1;" vertex="1" parent="1">
          <mxGeometry x="70" y="1687.5" width="120" height="60" as="geometry" />
        </mxCell>
        <mxCell id="ZBJVuQkuqlIhL208MIH7-134" value="FA10&lt;br&gt;FIN" style="ellipse;whiteSpace=wrap;html=1;aspect=fixed;fontStyle=1;fillColor=#f8cecc;strokeColor=#b85450;strokeWidth=3;" vertex="1" parent="1">
          <mxGeometry x="380" y="1908" width="80" height="80" as="geometry" />
        </mxCell>
      </root>
    </mxGraphModel>
  </diagram>
</mxfile>
